<svg id="icons" xmlns="http://www.w3.org/2000/svg" width="519.65" height="431.87" viewBox="0 0 519.65 431.87"><defs><style>.cls-1{fill:#e8c25a;}.cls-2{fill:#e0e0e0;}.cls-3{fill:#ebebeb;}.cls-4{fill:#fff;}.cls-5{fill:#ffdf89;}</style></defs><g id="folder_fill" data-name="folder fill"><path class="cls-1" d="M432.47,143.17V444.82a30.91,30.91,0,0,1-30.94,30.94H30.94A30.92,30.92,0,0,1,0,444.82v-370A30.94,30.94,0,0,1,30.94,43.89h89.24A30.94,30.94,0,0,1,142.06,53l50.3,50.3a31,31,0,0,0,21.92,9.08H401.63A30.84,30.84,0,0,1,432.47,143.17Z" transform="translate(0 -43.89)"/><polygon class="cls-2" points="417.54 398.46 427.38 46.29 31.88 46.29 22.7 398.46 417.54 398.46"/><polygon class="cls-3" points="419.78 402.64 466 80.11 70.5 80.11 24.93 402.64 419.78 402.64"/><polygon class="cls-4" points="423.73 404.58 495.35 123.7 99.85 123.7 28.88 404.58 423.73 404.58"/><path class="cls-5" d="M32.88,475.76l91.31-250a30.06,30.06,0,0,1,28.55-20.62H494.5a25.13,25.13,0,0,1,23.86,33L436.87,458.53A25.13,25.13,0,0,1,413,475.76Z" transform="translate(0 -43.89)"/></g></svg>