<svg id="icons" xmlns="http://www.w3.org/2000/svg" xmlns:xlink="http://www.w3.org/1999/xlink" width="519.65" height="519.65" viewBox="0 0 519.65 519.65"><defs><style>.cls-1{fill:#755c44;}.cls-2{fill:url(#linear-gradient);}.cls-3{fill:#826d57;}.cls-4{fill:#654;}.cls-5{fill:#383838;}.cls-6{fill:#666;}.cls-7{fill:url(#linear-gradient-2);}.cls-8{fill:url(#linear-gradient-3);}.cls-9{fill:url(#linear-gradient-4);}.cls-10{fill:#525252;}</style><linearGradient id="linear-gradient" x1="259.35" y1="23.75" x2="259.35" y2="355.01" gradientUnits="userSpaceOnUse"><stop offset="0" stop-color="#7e5e48"/><stop offset="0.11" stop-color="#876549"/><stop offset="0.61" stop-color="#423326"/><stop offset="0.73" stop-color="#392f24"/><stop offset="0.9" stop-color="#362d23"/></linearGradient><linearGradient id="linear-gradient-2" x1="259.35" y1="312.85" x2="259.35" y2="385.95" gradientUnits="userSpaceOnUse"><stop offset="0.02"/><stop offset="0.49" stop-color="#949494"/><stop offset="0.49" stop-color="#939393"/><stop offset="0.62" stop-color="#5f5f5f"/><stop offset="0.74" stop-color="#363636"/><stop offset="0.84" stop-color="#181818"/><stop offset="0.93" stop-color="#060606"/><stop offset="1"/></linearGradient><linearGradient id="linear-gradient-3" x1="158.25" y1="340.05" x2="197.24" y2="340.05" gradientUnits="userSpaceOnUse"><stop offset="0"/><stop offset="0.18" stop-color="#3c3c3c"/><stop offset="0.39" stop-color="#7b7b7b"/><stop offset="0.49" stop-color="#949494"/><stop offset="0.56" stop-color="#8f8f8f"/><stop offset="0.65" stop-color="#818181"/><stop offset="0.74" stop-color="#696969"/><stop offset="0.84" stop-color="#484848"/><stop offset="0.94" stop-color="#1f1f1f"/><stop offset="1"/></linearGradient><linearGradient id="linear-gradient-4" x1="301.8" y1="340.05" x2="340.79" y2="340.05" gradientTransform="matrix(-1, 0, 0, 1, 662.24, 0)" xlink:href="#linear-gradient-3"/></defs><g id="stash"><polygon class="cls-1" points="436.43 229.12 394.78 77.23 394.78 358.58 436.33 463.53 436.43 229.12"/><polygon class="cls-1" points="82.26 229.12 123.91 77.23 123.91 358.58 82.36 463.53 82.26 229.12"/><polygon class="cls-2" points="395.78 85.67 395.78 367.01 122.91 367.01 122.91 85.67 241.9 85.66 276.79 85.66 395.78 85.67"/><polygon class="cls-3" points="447.08 248.27 430.74 248.27 393.72 77.23 410.05 77.23 447.08 248.27"/><polygon class="cls-3" points="71.62 248.27 87.95 248.27 124.98 77.23 108.65 77.23 71.62 248.27"/><polygon class="cls-4" points="108.65 77.24 106.58 86.81 276.79 86.8 276.79 77.23 108.65 77.24"/><polygon class="cls-4" points="410.04 77.24 412.11 86.81 241.9 86.8 241.9 77.23 410.04 77.24"/><polygon class="cls-5" points="457.2 208.73 457.2 519.65 61.99 519.65 61.99 208.73 148.56 208.73 148.56 257.8 370.63 257.8 370.63 208.73 457.2 208.73"/><polygon class="cls-6" points="150.18 199.16 148.56 208.73 61.98 208.72 64.61 199.15 150.18 199.16"/><polygon class="cls-6" points="370.63 248.28 370.63 257.8 148.56 257.85 148.56 248.27 370.63 248.28"/><path class="cls-7" d="M351.78,328.71v26.07a10.33,10.33,0,0,1-10.33,10.33H177.24a10.33,10.33,0,0,1-10.33-10.33V328.71h0a10.33,10.33,0,1,1,20.65,0v15.74H331.12V328.71h0a10.33,10.33,0,1,1,20.65,0Z"/><path class="cls-8" d="M187.57,328.71v15.74c-12.24.58-17.44,12.38-18,17.26a10.28,10.28,0,0,1-2.67-6.93V328.71h0a10.33,10.33,0,1,1,20.65,0Z"/><path class="cls-9" d="M331.12,328.71v15.74c12.24.58,17.44,12.38,18,17.26a10.28,10.28,0,0,0,2.67-6.93V328.71h0a10.33,10.33,0,1,0-20.65,0Z"/><polygon class="cls-10" points="150.18 248.27 148.56 257.85 148.56 208.73 150.18 199.16 150.18 248.27"/><polygon class="cls-6" points="369.01 199.16 370.62 208.74 457.2 208.73 454.57 199.15 369.01 199.16"/><polygon class="cls-10" points="369.01 248.28 370.62 257.85 370.62 208.74 369.01 199.16 369.01 248.28"/></g></svg>