<svg id="icons" xmlns="http://www.w3.org/2000/svg" xmlns:xlink="http://www.w3.org/1999/xlink" width="395.49" height="519.5" viewBox="0 0 395.49 519.5"><defs><style>.cls-1{fill:#75593e;}.cls-2{fill:url(#linear-gradient);}.cls-3{fill:#826d57;}.cls-4{fill:url(#linear-gradient-2);}.cls-5{fill:#654;}.cls-6{fill:#e8c25a;}.cls-7{fill:#f66;}.cls-8{fill:#dbdbdb;}.cls-9{fill:#e6e6e6;}.cls-10{fill:#f2f2f2;}.cls-11{fill:#f7d368;}.cls-12{fill:#65db7f;}.cls-13{fill:#ffdf89;}.cls-14{fill:#7ab9ff;}.cls-15{fill:#383838;}.cls-16{fill:#666;}.cls-17{fill:#525252;}.cls-18{fill:url(#linear-gradient-3);}.cls-19{fill:url(#linear-gradient-4);}.cls-20{fill:url(#linear-gradient-5);}</style><linearGradient id="linear-gradient" x1="191.57" y1="469.05" x2="497.72" y2="-153.54" gradientTransform="matrix(-1, 0, 0, 1, 626.68, 0)" gradientUnits="userSpaceOnUse"><stop offset="0" stop-color="#9c7e59"/><stop offset="0.04" stop-color="#8d6e51"/><stop offset="0.1" stop-color="#82624a"/><stop offset="0.15" stop-color="#7e5e48"/><stop offset="0.34" stop-color="#8c6e51"/><stop offset="0.45" stop-color="#ad8c64"/><stop offset="0.6" stop-color="#8c6947"/><stop offset="0.69" stop-color="#7f5b3c"/><stop offset="0.87" stop-color="#d1a979"/><stop offset="0.89" stop-color="#c8a172"/><stop offset="0.93" stop-color="#b08c61"/><stop offset="0.98" stop-color="#886944"/><stop offset="1" stop-color="#7b5d3a"/></linearGradient><linearGradient id="linear-gradient-2" x1="245.57" y1="469.05" x2="551.72" y2="-153.54" gradientTransform="translate(-285.46)" xlink:href="#linear-gradient"/><linearGradient id="linear-gradient-3" x1="259.32" y1="313.05" x2="259.32" y2="386.16" gradientUnits="userSpaceOnUse"><stop offset="0.02"/><stop offset="0.49" stop-color="#949494"/><stop offset="0.49" stop-color="#939393"/><stop offset="0.62" stop-color="#5f5f5f"/><stop offset="0.74" stop-color="#363636"/><stop offset="0.84" stop-color="#181818"/><stop offset="0.93" stop-color="#060606"/><stop offset="1"/></linearGradient><linearGradient id="linear-gradient-4" x1="158.23" y1="340.25" x2="197.22" y2="340.25" gradientUnits="userSpaceOnUse"><stop offset="0"/><stop offset="0.18" stop-color="#3c3c3c"/><stop offset="0.39" stop-color="#7b7b7b"/><stop offset="0.49" stop-color="#949494"/><stop offset="0.56" stop-color="#8f8f8f"/><stop offset="0.65" stop-color="#818181"/><stop offset="0.74" stop-color="#696969"/><stop offset="0.84" stop-color="#484848"/><stop offset="0.94" stop-color="#1f1f1f"/><stop offset="1"/></linearGradient><linearGradient id="linear-gradient-5" x1="301.82" y1="340.25" x2="340.81" y2="340.25" gradientTransform="matrix(-1, 0, 0, 1, 662.24, 0)" xlink:href="#linear-gradient-4"/></defs><g id="stash_fill" data-name="stash fill"><polyline class="cls-1" points="343.94 123.17 343.93 404.51 190.05 404.51 190.06 123.16"/><polygon class="cls-2" points="385.58 284.62 343.94 132.73 343.93 414.08 385.48 519.03 385.58 284.62"/><polygon class="cls-3" points="395.22 294.2 378.89 294.2 341.86 123.16 358.19 123.16 395.22 294.2"/><polyline class="cls-1" points="51.28 123.17 51.29 404.51 205.16 404.51 205.16 123.16"/><polygon class="cls-4" points="9.64 284.62 51.28 132.73 51.29 414.08 9.74 519.03 9.64 284.62"/><polygon class="cls-3" points="0 294.2 16.33 294.2 53.36 123.16 37.02 123.16 0 294.2"/><polygon class="cls-5" points="37.02 123.17 34.95 132.74 205.16 132.74 205.16 123.17 37.02 123.17"/><polygon class="cls-5" points="358.19 123.17 360.27 132.74 190.06 132.74 190.06 123.17 358.19 123.17"/><g id="Layer_58" data-name="Layer 58"><path class="cls-6" d="M421,32.55V146.1c0,.38,0,.76,0,1.14s0,.71-.06,1.07a.28.28,0,0,1,0,.1c0,.35,0,.7-.08,1s-.08.74-.14,1.09-.1.72-.16,1.06c-.11.62-.23,1.23-.38,1.82a5.8,5.8,0,0,1-.16.63c-.23.88-.5,1.72-.8,2.54-.1.28-.22.57-.33.85s-.14.34-.21.5l-.33.72a22.62,22.62,0,0,1-2.21,3.7c-.18.24-.36.47-.55.7s-.41.49-.62.72a14.88,14.88,0,0,1-1.14,1.11l-.62.53-.64.48s0,0,0,0c-.22.16-.44.3-.66.44a13,13,0,0,1-1.37.74,11.58,11.58,0,0,1-1.23.48l-.24.08-.71.17-.45.1-.18,0-.34.06c-.15,0-.31,0-.47,0s-.56,0-.83,0H114.94a11.42,11.42,0,0,1-7.35-2.84c-4.54-3.76-7.6-10.91-7.6-19.12V32.55c0-.37,0-.76,0-1.14s0-.7,0-1.07a.34.34,0,0,1,0-.1c0-.35.05-.7.09-1s.08-.74.13-1.08.11-.72.17-1.07c.1-.62.23-1.23.37-1.82,0-.21.11-.43.17-.63.23-.88.5-1.72.79-2.54l.34-.85a22.62,22.62,0,0,1,2.24-4.2c.17-.25.35-.49.52-.73s.35-.46.54-.68a15.2,15.2,0,0,1,3.81-3.37,5,5,0,0,1,.49-.28l.49-.26.47-.21a9.72,9.72,0,0,1,1-.39l.5-.14a.11.11,0,0,1,.08,0l.48-.11a3.29,3.29,0,0,1,.53-.1c.11,0,.24,0,.35-.06l.44,0c.28,0,.56,0,.85,0H406.08a11.42,11.42,0,0,1,7.35,2.84C418,17.18,421,24.35,421,32.55Z" transform="translate(-61.45)"/><polygon class="cls-7" points="350.88 25.99 350.88 315.68 47.07 315.68 47.07 0 107.42 0 107.42 25.99 350.88 25.99"/><rect class="cls-8" x="47.07" y="21.32" width="303.8" height="172.04"/><rect class="cls-9" x="44.87" y="33.7" width="308.32" height="172.04"/><rect class="cls-10" x="43.02" y="44.84" width="312.04" height="172.04"/><path class="cls-6" d="M424.59,77.45V190.19c0,.37,0,.76,0,1.13s0,.7-.06,1.06a.28.28,0,0,1,0,.1c0,.35-.05.69-.09,1s-.08.73-.14,1.07-.11.72-.17,1.06c-.11.61-.24,1.22-.38,1.81-.05.21-.11.42-.17.62-.24.88-.52,1.71-.82,2.52-.11.28-.23.57-.35.85s-.14.33-.22.49-.22.49-.34.72a21.23,21.23,0,0,1-2.27,3.67c-.19.24-.37.47-.57.69s-.42.49-.64.72a15.1,15.1,0,0,1-1.17,1.1l-.64.53-.66.48h0c-.22.16-.45.29-.68.44a13.52,13.52,0,0,1-1.42.72,10,10,0,0,1-1.25.48l-.25.08-.73.17-.47.1-.19,0-.34.06c-.16,0-.32,0-.49,0s-.57,0-.86,0h-300a12.08,12.08,0,0,1-7.58-2.82c-4.67-3.74-7.83-10.83-7.83-19V77.45c0-.37,0-.76,0-1.13s0-.7.06-1.06a.34.34,0,0,1,0-.1c0-.35,0-.69.09-1s.07-.73.13-1.07.11-.72.17-1.06c.11-.61.24-1.22.39-1.81,0-.21.11-.42.17-.62a24,24,0,0,1,.82-2.52c.11-.28.23-.57.35-.85A22.42,22.42,0,0,1,98.31,62c.18-.26.36-.5.54-.73s.36-.46.55-.68a15.53,15.53,0,0,1,3.93-3.34,4.29,4.29,0,0,1,.51-.28,4.66,4.66,0,0,1,.5-.25l.49-.22a9.37,9.37,0,0,1,1-.38l.51-.15.08,0,.5-.11a5.17,5.17,0,0,1,.54-.11l.37-.05.44,0a8.7,8.7,0,0,1,.89,0h300a12,12,0,0,1,7.57,2.81C421.43,62.19,424.59,69.31,424.59,77.45Z" transform="translate(-61.45)"/><path class="cls-11" d="M430.83,88.31V201.05c0,.37,0,.76,0,1.13s0,.7-.06,1.06a.15.15,0,0,1,0,.1c0,.35-.05.69-.09,1s-.08.73-.14,1.07-.11.72-.17,1.06c-.12.61-.25,1.22-.4,1.81-.05.21-.11.42-.17.62-.25.87-.54,1.71-.85,2.52-.11.28-.24.57-.36.85s-.14.33-.22.49-.23.49-.35.72a20.93,20.93,0,0,1-2.35,3.67c-.19.24-.38.47-.58.69s-.44.49-.66.72a15.6,15.6,0,0,1-1.21,1.1c-.21.18-.44.36-.66.53l-.67.48s0,0,0,0c-.24.16-.47.29-.71.43a12.43,12.43,0,0,1-1.46.73,11.24,11.24,0,0,1-1.29.48l-.26.08-.76.17-.47.1-.2,0-.36.06c-.16,0-.32,0-.5,0s-.59,0-.88,0H105.78A12.68,12.68,0,0,1,98,220c-4.81-3.74-8.07-10.84-8.07-19V88.31c0-.37,0-.76,0-1.13s0-.7.06-1.06A.41.41,0,0,1,90,86c0-.34.05-.69.09-1s.09-.73.15-1.07.11-.72.17-1.06c.11-.61.24-1.22.4-1.81,0-.21.11-.42.17-.62a26.59,26.59,0,0,1,.85-2.52c.11-.28.23-.57.36-.85a22.72,22.72,0,0,1,2.37-4.17l.56-.73c.18-.22.37-.45.57-.67a15.68,15.68,0,0,1,4-3.34,4.41,4.41,0,0,1,.52-.28c.17-.1.35-.18.52-.26s.34-.14.5-.21a9.86,9.86,0,0,1,1.08-.38,5.26,5.26,0,0,1,.53-.15.19.19,0,0,1,.08,0l.51-.1a5.72,5.72,0,0,1,.57-.11l.37,0,.46,0a9.1,9.1,0,0,1,.91,0H415a12.64,12.64,0,0,1,7.8,2.81C427.57,73.05,430.83,80.16,430.83,88.31Z" transform="translate(-61.45)"/><polygon class="cls-12" points="358.64 81.11 358.64 227.17 39.45 227.17 39.45 55.12 102.85 55.12 102.85 81.11 358.64 81.11"/><rect class="cls-8" x="39.45" y="78.05" width="319.19" height="172.04"/><rect class="cls-9" x="37.15" y="88.99" width="323.79" height="172.04"/><rect class="cls-10" x="34.95" y="99.14" width="328.19" height="172.04"/><path class="cls-11" d="M432.76,133.15V245.89c0,.37,0,.76,0,1.13s0,.7-.06,1.06a.28.28,0,0,1,0,.1c0,.35-.05.69-.09,1s-.09.73-.15,1.07-.11,19.57-.18,19.92c-.11.61-.25,1.22-.4,1.8-.05.22-.12.43-.18.63-.25.87-.54,1.71-.86,2.52-.12.28-.24.57-.37.85a4.37,4.37,0,0,1-.23.49,6.7,6.7,0,0,1-.35.71,21.37,21.37,0,0,1-2.39,3.68l-.59.69c-.22.25-.45.49-.68.71a16,16,0,0,1-1.23,1.11l-.67.53-.69.47s0,0,0,0c-.24.16-.48,3.11-.72,3.26a15.49,15.49,0,0,1-1.48.72,11.15,11.15,0,0,1-1.33.48,1.6,1.6,0,0,1-.26.08l-.77.17-.48.1-.2,0-.37.06c-.16,0-.33,0-.51,0s-.6,0-.9,0h-315c-2.89,0-5.61-3.84-8-5.63-4.91-3.74-8.22-29.7-8.22-37.84V133.15c0-.37,0-.76,0-1.13s0-.7.06-1.06a.31.31,0,0,1,0-.1c0-.35,0-.69.09-1s.09-.73.15-1.07.11-.72.17-1.06c.12-.61.25-1.22.41-1.81a6.32,6.32,0,0,1,.18-.62,26.61,26.61,0,0,1,.86-2.52c.11-.28.24-.57.36-.85a22.35,22.35,0,0,1,2.43-4.17c.18-.25.37-.49.56-.72s.38-.46.58-.68A16,16,0,0,1,95.37,113a4.52,4.52,0,0,1,.53-.28c.18-.1.35-.18.53-.26l.51-.21a10.19,10.19,0,0,1,1.1-.38c.18-.06.37-.11.54-.15l.09,0,.52-.11a5.22,5.22,0,0,1,.57-.11l.38,0,.47,0c.3,0,.62,0,.93,0h315a13.07,13.07,0,0,1,8,2.81C429.44,117.89,432.76,125,432.76,133.15Z" transform="translate(-61.45)"/><path class="cls-13" d="M442.89,145V257.71c0,.37,0,.76,0,1.13s0,.7-.07,1.06a.37.37,0,0,1,0,.11c0,.34-.05.69-.1,1s-.08.73-.15,1.07-.12.72-.18,1.06c-.12.61-.27,1.22-.43,1.81a6.36,6.36,0,0,1-.19.62,24.15,24.15,0,0,1-.9,2.52c-.12.28-.25.57-.39.85a4.44,4.44,0,0,1-.24.49c-.12.25-.24.49-.37.72-.73,1.35-1.57,21.43-2.51,22.53-.21.24-.4.46-.62.69s-.47.49-.71.72c-.42.39-.84.75-1.29,1.1l-.71.53-.72.48h0c-.26.16-.51.29-.76.43a13.77,13.77,0,0,1-1.56.73,12,12,0,0,1-1.39.48l-.27.08-.81.17-.51.1-.21,0-.38.06c-.18,0-.35,0-.54,0s-.63,0-.95,0H94.9a14.19,14.19,0,0,1-8.36-2.82c-5.15-3.74-8.64-29.69-8.64-37.84V145c0-.37,0-.75,0-1.13s0-.7.07-1.06a.34.34,0,0,1,0-.1c0-.35,0-.69.1-1s.08-.73.15-1.08.12-.72.19-1.06c.12-.61.26-1.22.42-1.8.06-.22.12-.43.19-.63a25,25,0,0,1,.91-2.52c.12-.28.25-.57.38-.85a22.1,22.1,0,0,1,2.54-4.16l.59-.73c.2-.23.41-.45.62-.68a16.71,16.71,0,0,1,4.33-3.34,4.87,4.87,0,0,1,.56-.28l.56-.25.53-.22c.37-.14.77-.27,1.16-.38.19-.05.38-.11.57-.15l.09,0,.54-.11a4.42,4.42,0,0,1,.6-.1l.41-.06.49,0c.32,0,.64,0,1,0h331a14.1,14.1,0,0,1,8.36,2.82C439.41,129.72,442.89,136.83,442.89,145Z" transform="translate(-61.45)"/><polygon class="cls-14" points="29.4 109.99 29.4 282.04 368.69 282.04 368.69 135.68 96.78 135.68 96.78 109.99 29.4 109.99"/><rect class="cls-8" x="29.4" y="133.81" width="339.3" height="172.04"/><rect class="cls-9" x="25.85" y="145.9" width="346.39" height="172.04"/><rect class="cls-10" x="20.82" y="158.35" width="356.46" height="172.04"/><path class="cls-13" d="M447.3,192.4V326.81c0,.37,0,.76,0,1.13s0,.7-.07,1.06a.37.37,0,0,1,0,.11c0,.34-.06.68-.1,1s-.09.73-.16,1.07-.12.72-.19,1.06c-.12.61-.27,1.22-.43,1.81-.06.21-.13.42-.19.62a26.76,26.76,0,0,1-.93,2.52l-.39.85c-.08.17-.16.33-.25.49s-.25.49-.38.72a20.78,20.78,0,0,1-2.58,3.67c-.21.24-.41.47-.63.69s-.49.49-.73.72a17.09,17.09,0,0,1-1.32,1.1c-.24.18-.48.36-.73.53l-.74.48s0,0,0,0c-.26.16-.51.29-.77.44a16.32,16.32,0,0,1-1.6.72,12.48,12.48,0,0,1-1.42.48l-.28.08-.83.17-.53.1-.21,0-.39.06c-.18,0-.36,0-.55,0s-.65,0-1,0h-339a14.67,14.67,0,0,1-8.56-2.82c-5.28-3.74-8.85-10.83-8.85-19V192.4c0-.37,0-.76,0-1.13s0-.7.07-1.06a.31.31,0,0,1,0-.1c0-.35,0-.69.1-1s.09-.73.15-1.07.13-.72.19-1.06c.13-.61.27-1.22.44-1.81.06-.21.12-.42.19-.62a24.24,24.24,0,0,1,.93-2.52c.12-.28.26-.57.39-.85A21.93,21.93,0,0,1,78.53,177l.6-.72.63-.68a17,17,0,0,1,4.44-3.34,5,5,0,0,1,.57-.28c.19-.1.39-.18.58-.26l.54-.21a11.78,11.78,0,0,1,1.19-.38c.19-.06.39-.11.58-.15l.09,0,.56-.11c.2-.05.42-.08.62-.11l.41-.05.5,0c.33,0,.67,0,1,0h339a14.73,14.73,0,0,1,8.56,2.81C443.73,177.14,447.3,184.25,447.3,192.4Z" transform="translate(-61.45)"/></g><polygon class="cls-15" points="395.49 208.58 395.49 519.5 0.27 519.5 0.27 208.58 86.85 208.58 86.85 257.65 308.91 257.65 308.91 208.58 395.49 208.58"/><polygon class="cls-16" points="88.47 199.08 86.85 208.66 0.27 208.65 2.9 199.07 88.47 199.08"/><polygon class="cls-16" points="308.92 248.21 308.92 257.73 86.85 257.77 86.85 248.2 308.92 248.21"/><polygon class="cls-17" points="88.47 248.2 86.85 257.77 86.85 208.66 88.47 199.08 88.47 248.2"/><polygon class="cls-16" points="307.3 199.09 308.91 208.66 395.49 208.65 392.86 199.08 307.3 199.09"/><polygon class="cls-17" points="307.3 248.2 308.91 257.78 308.91 208.66 307.3 199.09 307.3 248.2"/><path class="cls-18" d="M351.76,328.92V355a10.33,10.33,0,0,1-10.33,10.33H177.22A10.33,10.33,0,0,1,166.89,355V328.92h0a10.33,10.33,0,1,1,20.65,0v15.74H331.1V328.92h0a10.33,10.33,0,1,1,20.65,0Z" transform="translate(-61.45)"/><path class="cls-19" d="M187.55,328.92v15.74c-12.24.58-17.44,12.38-18,17.26a10.29,10.29,0,0,1-2.67-6.93V328.92h0a10.33,10.33,0,1,1,20.65,0Z" transform="translate(-61.45)"/><path class="cls-20" d="M331.1,328.92v15.74c12.24.58,17.44,12.38,18,17.26a10.29,10.29,0,0,0,2.67-6.93V328.92h0a10.33,10.33,0,1,0-20.65,0Z" transform="translate(-61.45)"/><path class="cls-16" d="M165.33,358" transform="translate(-61.45)"/></g></svg>