<svg id="icons" xmlns="http://www.w3.org/2000/svg" xmlns:xlink="http://www.w3.org/1999/xlink" width="519.65" height="396.67" viewBox="0 0 519.65 396.67"><defs><style>.cls-1{fill:url(#linear-gradient);}.cls-2{fill:#29abe2;}.cls-3{fill:#c2a24b;}.cls-4{fill:#e8c25a;}.cls-5{fill:#7acdf0;}</style><linearGradient id="linear-gradient" x1="46.17" y1="62.71" x2="476.89" y2="336.12" gradientUnits="userSpaceOnUse"><stop offset="0" stop-color="#757575"/><stop offset="1" stop-color="#363636"/></linearGradient></defs><g id="Plexos_Bisel" data-name="Plexos Bisel"><g id="desktop"><rect class="cls-1" width="519.65" height="396.67" rx="23.9"/><path class="cls-2" d="M513.65,384.53H6a6,6,0,0,0-6,6v43.73a23.9,23.9,0,0,0,23.9,23.9H495.75a23.9,23.9,0,0,0,23.9-23.9V390.53A6,6,0,0,0,513.65,384.53Z" transform="translate(0 -61.49)"/><path class="cls-3" d="M91.46,107v41.25a4.24,4.24,0,0,1-3,4.06,4.3,4.3,0,0,1-1.2.17H36.56a4.16,4.16,0,0,1-2.08-.55,4.22,4.22,0,0,1-2.15-3.68V97.66a4.23,4.23,0,0,1,4.23-4.23h12.2a4.2,4.2,0,0,1,3,1.24l6.88,6.88a4.25,4.25,0,0,0,3,1.24H87.24A4.21,4.21,0,0,1,91.46,107Z" transform="translate(0 -61.49)"/><path class="cls-3" d="M91.46,186.64v41.24a4.24,4.24,0,0,1-3,4.06,4.3,4.3,0,0,1-1.2.17H36.56a4.21,4.21,0,0,1-4.23-4.23V177.29a4.23,4.23,0,0,1,4.23-4.23h12.2a4.24,4.24,0,0,1,3,1.24l6.88,6.88a4.25,4.25,0,0,0,3,1.24H87.24A4.22,4.22,0,0,1,91.46,186.64Z" transform="translate(0 -61.49)"/><path class="cls-3" d="M91.46,266.27v41.24a4.24,4.24,0,0,1-3,4.06,4.3,4.3,0,0,1-1.2.17H36.56a4.21,4.21,0,0,1-4.23-4.23V256.92a4.23,4.23,0,0,1,4.23-4.23h12.2a4.24,4.24,0,0,1,3,1.24l6.88,6.88a4.25,4.25,0,0,0,3,1.24H87.24A4.22,4.22,0,0,1,91.46,266.27Z" transform="translate(0 -61.49)"/><path class="cls-4" d="M91.46,117.79v30.46a4.24,4.24,0,0,1-3,4.06,4.3,4.3,0,0,1-1.2.17H36.56a4.16,4.16,0,0,1-2.08-.55,4.22,4.22,0,0,1-2.15-3.68V108.44a4.23,4.23,0,0,1,4.23-4.23h12.2a4.24,4.24,0,0,1,3,1.24l6.88,6.88a4.25,4.25,0,0,0,3,1.24H87.24A4.22,4.22,0,0,1,91.46,117.79Z" transform="translate(0 -61.49)"/><path class="cls-4" d="M91.46,197.42v30.46a4.24,4.24,0,0,1-3,4.06,4.3,4.3,0,0,1-1.2.17H36.56a4.21,4.21,0,0,1-4.23-4.23V188.07a4.23,4.23,0,0,1,4.23-4.23h12.2a4.24,4.24,0,0,1,3,1.24L58.63,192a4.25,4.25,0,0,0,3,1.24H87.24A4.22,4.22,0,0,1,91.46,197.42Z" transform="translate(0 -61.49)"/><path class="cls-4" d="M91.46,277.05v30.46a4.24,4.24,0,0,1-3,4.06,4.3,4.3,0,0,1-1.2.17H36.56a4.21,4.21,0,0,1-4.23-4.23V267.7a4.23,4.23,0,0,1,4.23-4.23h12.2a4.24,4.24,0,0,1,3,1.24l6.88,6.88a4.2,4.2,0,0,0,3,1.24H87.24A4.22,4.22,0,0,1,91.46,277.05Z" transform="translate(0 -61.49)"/><rect class="cls-5" y="315.28" width="519.65" height="13.76"/></g></g></svg>