<svg id="icons" xmlns="http://www.w3.org/2000/svg" xmlns:xlink="http://www.w3.org/1999/xlink" width="381.18" height="518.65" viewBox="0 0 381.18 518.65"><defs><style>.cls-1{fill:url(#linear-gradient);}.cls-2{fill:url(#linear-gradient-2);}.cls-3{fill:url(#linear-gradient-3);}.cls-4{fill:url(#linear-gradient-4);}.cls-5{fill:#b3b3b3;}.cls-6{fill:url(#linear-gradient-5);}.cls-7{fill:#4d4d4d;}.cls-8{fill:#666;}.cls-9{fill:#707070;}</style><linearGradient id="linear-gradient" x1="316.36" y1="525.94" x2="31.41" y2="362.29" gradientUnits="userSpaceOnUse"><stop offset="0" stop-color="#8b8b8b"/><stop offset="1" stop-color="#707070"/></linearGradient><linearGradient id="linear-gradient-2" x1="118.18" y1="302.33" x2="418.88" y2="302.33" gradientUnits="userSpaceOnUse"><stop offset="0" stop-color="#a3a3a3"/><stop offset="1" stop-color="#c9c9c9"/></linearGradient><linearGradient id="linear-gradient-3" x1="118.18" y1="302.33" x2="418.88" y2="302.33" gradientUnits="userSpaceOnUse"><stop offset="0" stop-color="#b7b7b7"/><stop offset="1" stop-color="#ebebeb"/></linearGradient><linearGradient id="linear-gradient-4" x1="417.67" y1="197.59" x2="103.92" y2="-19.76" xlink:href="#linear-gradient"/><linearGradient id="linear-gradient-5" x1="302.91" y1="173.83" x2="15.33" y2="-78.58" gradientUnits="userSpaceOnUse"><stop offset="0" stop-color="#919191"/><stop offset="1" stop-color="#707070"/></linearGradient></defs><g id="trash"><ellipse class="cls-1" cx="190.59" cy="453.71" rx="164.12" ry="64.94"/><path class="cls-2" d="M418.88,111.12V438.58c-2,5.65-5.79,11.06-11,16.13-23.55,22.86-77.07,38.82-139.33,38.82s-115.79-16-139.33-38.82c-5.23-5.07-9-10.48-11-16.13V111.12Z" transform="translate(-77.94 -1)"/><path class="cls-3" d="M118.18,111.12V438.58c2,5.65,5.79,11.06,11,16.13,23.54,22.86,77.07,38.82,139.33,38.82s115.78-16,139.33-38.82c5.23-5.07,9-10.48,11-16.13V111.12Zm61.4,336.78a167.89,167.89,0,0,1-31.84-12.43V172.06a167.89,167.89,0,0,0,31.84,12.43Zm67,11.12c-11.08-.78-21.74-2-31.84-3.61V192l31.84,3.62Zm75.76-3.61c-10.1,1.6-20.76,2.83-31.84,3.61V195.61L322.33,192Zm67-19.94a167.89,167.89,0,0,1-31.84,12.43V184.49a167.89,167.89,0,0,0,31.84-12.43Z" transform="translate(-77.94 -1)"/><path class="cls-4" d="M459.12,76.24V92.35c0,41.55-85.33,75.24-190.59,75.24S77.94,133.9,77.94,92.35V76.24Z" transform="translate(-77.94 -1)"/><path class="cls-5" d="M454.74,83.67H82.32c18.68-33.11,95-57.9,186.21-57.9S436.06,50.56,454.74,83.67Z" transform="translate(-77.94 -1)"/><ellipse class="cls-6" cx="190.59" cy="75.24" rx="190.59" ry="75.24"/><polygon class="cls-7" points="150.71 38.98 171.62 33.55 171.62 16.82 150.71 22.25 150.71 38.98"/><polygon class="cls-8" points="209.56 53.53 150.71 22.25 171.62 16.82 230.47 48.1 209.56 53.53"/><polygon class="cls-9" points="209.56 70.25 230.47 64.82 230.47 48.1 209.56 53.53 209.56 70.25"/></g></svg>