<svg id="icons" xmlns="http://www.w3.org/2000/svg" xmlns:xlink="http://www.w3.org/1999/xlink" width="385.84" height="518.36" viewBox="0 0 385.84 518.36"><defs><style>.cls-1{fill:url(#linear-gradient);}.cls-2{fill:url(#linear-gradient-24);}.cls-3{fill:url(#linear-gradient-28);}.cls-4{fill:url(#linear-gradient-29);}.cls-5{fill:url(#linear-gradient-30);}.cls-6{fill:#333;}.cls-7{fill:#e6e6e6;}.cls-8{fill:#f2f2f2;}.cls-9{fill:url(#linear-gradient-31);}.cls-10{fill:#fff;}.cls-11{fill:url(#linear-gradient-32);}.cls-12{fill:url(#linear-gradient-33);}.cls-13{fill:#4d4d4d;}.cls-14{fill:#666;}.cls-15{fill:#707070;}</style><linearGradient id="linear-gradient" x1="411.21" y1="363.18" x2="-81.17" y2="80.42" gradientUnits="userSpaceOnUse"><stop offset="0" stop-color="#8b8b8b"/><stop offset="1" stop-color="#707070"/></linearGradient><linearGradient id="linear-gradient-24" x1="486.81" y1="364.48" x2="-5.57" y2="81.71" gradientTransform="matrix(0.99, 0.13, -0.13, 0.99, 8.76, -34.59)" xlink:href="#linear-gradient"/><linearGradient id="linear-gradient-28" x1="318.7" y1="525.65" x2="33.74" y2="362" xlink:href="#linear-gradient"/><linearGradient id="linear-gradient-29" x1="118.18" y1="302.33" x2="418.88" y2="302.33" gradientUnits="userSpaceOnUse"><stop offset="0" stop-color="#a3a3a3"/><stop offset="1" stop-color="#c9c9c9"/></linearGradient><linearGradient id="linear-gradient-30" x1="118.18" y1="302.33" x2="418.88" y2="302.33" gradientUnits="userSpaceOnUse"><stop offset="0" stop-color="#b7b7b7"/><stop offset="1" stop-color="#ebebeb"/></linearGradient><linearGradient id="linear-gradient-31" x1="394.22" y1="174.3" x2="109.26" y2="10.65" xlink:href="#linear-gradient"/><linearGradient id="linear-gradient-32" x1="433.59" y1="236.92" x2="105.72" y2="9.8" gradientTransform="matrix(0.96, -0.13, 0.09, 0.68, -10.31, 10.26)" xlink:href="#linear-gradient"/><linearGradient id="linear-gradient-33" x1="394.83" y1="194.75" x2="94.36" y2="-68.97" gradientTransform="matrix(0.97, 0, 0, 0.55, -2.68, -0.12)" gradientUnits="userSpaceOnUse"><stop offset="0" stop-color="#919191"/><stop offset="1" stop-color="#707070"/></linearGradient></defs><g id="trash_fill" data-name="trash fill"><ellipse class="cls-1" cx="192.92" cy="453.42" rx="164.12" ry="64.94"/><path class="cls-1" d="M418.88,111.12V438.58c-2,5.65-5.79,11.06-11,16.13-23.55,22.86-77.07,38.82-139.33,38.82s-115.79-16-139.33-38.82c-5.23-5.07-9-10.48-11-16.13V111.12Z" transform="translate(-75.61 -1.29)"/><path class="cls-1" d="M118.18,111.12V438.58c2,5.65,5.79,11.06,11,16.13,23.54,22.86,77.07,38.82,139.33,38.82s115.78-16,139.33-38.82c5.23-5.07,9-10.48,11-16.13V111.12Zm61.4,336.78a167.89,167.89,0,0,1-31.84-12.43V172.06a167.89,167.89,0,0,0,31.84,12.43Zm67,11.12c-11.08-.78-21.74-2-31.84-3.61V192l31.84,3.62Zm75.76-3.61c-10.1,1.6-20.76,2.83-31.84,3.61V195.61L322.33,192Zm67-19.94a167.89,167.89,0,0,1-31.84,12.43V184.49a167.89,167.89,0,0,0,31.84-12.43Z" transform="translate(-75.61 -1.29)"/><ellipse class="cls-1" cx="192.92" cy="89.02" rx="153.41" ry="55.6"/><polygon class="cls-1" points="217.73 143.95 201.86 119.66 220.21 91.06 234.59 98.07 250.96 94.31 258.89 106.33 252.94 124.97 241.54 127.28 246 138.24 230.38 152.52 217.73 143.95"/><polygon class="cls-1" points="253.44 138.71 242.03 148.71 227.65 141.09 236.08 129.66 227.65 116.81 240.54 104.9 258.89 110.14 268.32 129.19 253.44 138.71"/><polygon class="cls-1" points="146.3 153.53 132.27 131.16 148.5 104.82 161.21 111.28 175.69 107.81 182.7 118.88 177.44 136.04 167.35 138.18 171.3 148.26 157.49 161.42 146.3 153.53"/><polygon class="cls-1" points="177.88 148.7 167.79 157.91 155.07 150.89 162.53 140.37 155.07 128.53 166.48 117.56 182.7 122.39 191.03 139.93 177.88 148.7"/><polygon class="cls-1" points="79.98 137.61 69.1 120.27 81.68 99.86 91.54 104.86 102.76 102.17 108.2 110.75 104.12 124.06 96.3 125.71 99.36 133.53 88.65 143.73 79.98 137.61"/><polygon class="cls-1" points="104.46 133.87 96.64 141.01 86.78 135.57 92.56 127.41 86.78 118.23 95.62 109.73 108.2 113.47 114.67 127.07 104.46 133.87"/><polygon class="cls-1" points="323.15 128.03 293.04 133.18 270.09 105.71 282.09 95.34 283.77 79.09 298.7 76.46 315.68 88.93 314.19 100.14 326.86 100.25 336.15 119.82 323.15 128.03"/><polygon class="cls-1" points="329.85 93.69 336.2 107.82 323.58 117.96 314.78 105.98 298.83 108.74 291.05 92.54 302.58 77.91 325.17 76.6 329.85 93.69"/><path class="cls-1" d="M432.65,101.92c0,35.87-73.48,64.94-164.12,64.94s-164.12-29.07-164.12-64.94c0-11.73,7.87-22.74,21.63-32.25C119,76.05,115.12,83,115.12,90.31c0,30.7,68.68,55.59,153.41,55.59S421.94,121,421.94,90.31c0-7.29-3.87-14.26-10.92-20.64C424.78,79.18,432.65,90.19,432.65,101.92Z" transform="translate(-75.61 -1.29)"/><path class="cls-1" d="M411,69.67C382.72,50.14,329.51,37,268.53,37S154.34,50.14,126,69.67c22.61-20.49,77.88-35,142.49-35S388.41,49.18,411,69.67Z" transform="translate(-75.61 -1.29)"/><polygon class="cls-1" points="122.88 92.78 164.69 117.95 141.59 126 136.93 150.81 127.06 142.48 104.59 143.76 100.81 98.91 122.88 92.78"/><polygon class="cls-1" points="119.26 93.22 145.01 95.73 142.13 114.19 153.69 136.69 111.87 105.79 96.64 121.5 104.78 93.91 119.26 93.22"/><polygon class="cls-1" points="166.18 99.7 220.53 67.85 215.13 100.67 240.04 123.36 224.54 129.22 211.93 156.61 159.26 129.98 166.18 99.7"/><polygon class="cls-1" points="210.21 144.49 179.16 156.31 171.94 131.78 145.81 110.61 211.54 124.63 220.07 96.34 226.46 135.24 210.21 144.49"/><polygon class="cls-1" points="291.05 93.23 320.67 54.45 326.13 78.3 350.28 85.66 340.92 94.55 339.72 117.03 294.72 115.84 291.05 93.23"/><polygon class="cls-1" points="325.66 112.19 300.15 107.8 304.38 89.61 294.5 66.32 333.95 100.2 350.28 85.64 340.14 112.56 325.66 112.19"/><polygon class="cls-1" points="299.19 128.97 245.57 144.94 256.6 119.15 239.18 96.04 253.85 94.12 270.13 74.09 311.05 105.54 299.19 128.97"/><polygon class="cls-1" points="271.99 139.38 247.56 122.55 260.7 105.65 261.61 76.66 286.38 130.88 310.38 123.58 286.89 146.73 271.99 139.38"/><path class="cls-1" d="M459.78,24l1.54,10.84c3.95,28-78.82,62-184.87,76.07S81.21,113.65,77.25,85.68L75.72,74.84Z" transform="translate(-75.61 -1.29)"/><ellipse class="cls-2" cx="267.72" cy="49.43" rx="193.7" ry="41.28" transform="translate(-79.77 34.14) rotate(-7.51)"/><polygon class="cls-1" points="146.67 38.29 160.34 29.3 155.61 15.64 141.94 24.63 146.67 38.29"/><polygon class="cls-1" points="208.56 15.64 141.94 24.63 155.61 15.63 222.88 6.09 208.56 15.64"/><polygon class="cls-1" points="214.18 31.54 228.5 21.99 222.88 6.09 208.56 15.64 214.18 31.54"/><ellipse class="cls-3" cx="192.92" cy="453.42" rx="164.12" ry="64.94"/><path class="cls-4" d="M418.88,111.12V438.58c-2,5.65-5.79,11.06-11,16.13-23.55,22.86-77.07,38.82-139.33,38.82s-115.79-16-139.33-38.82c-5.23-5.07-9-10.48-11-16.13V111.12Z" transform="translate(-75.61 -1.29)"/><path class="cls-5" d="M118.18,111.12V438.58c2,5.65,5.79,11.06,11,16.13,23.54,22.86,77.07,38.82,139.33,38.82s115.78-16,139.33-38.82c5.23-5.07,9-10.48,11-16.13V111.12Zm61.4,336.78a167.89,167.89,0,0,1-31.84-12.43V172.06a167.89,167.89,0,0,0,31.84,12.43Zm67,11.12c-11.08-.78-21.74-2-31.84-3.61V192l31.84,3.62Zm75.76-3.61c-10.1,1.6-20.76,2.83-31.84,3.61V195.61L322.33,192Zm67-19.94a167.89,167.89,0,0,1-31.84,12.43V184.49a167.89,167.89,0,0,0,31.84-12.43Z" transform="translate(-75.61 -1.29)"/><ellipse class="cls-6" cx="192.92" cy="89.02" rx="153.41" ry="55.6"/><polygon class="cls-7" points="217.73 143.95 201.86 119.66 220.21 91.06 234.59 98.07 250.96 94.31 258.89 106.33 252.94 124.97 241.54 127.28 246 138.24 230.38 152.52 217.73 143.95"/><polygon class="cls-8" points="253.44 138.71 242.03 148.71 227.65 141.09 236.08 129.66 227.65 116.81 240.54 104.9 258.89 110.14 268.32 129.19 253.44 138.71"/><polygon class="cls-7" points="146.3 153.53 132.27 131.16 148.5 104.82 161.21 111.28 175.69 107.81 182.7 118.88 177.44 136.04 167.35 138.18 171.3 148.26 157.49 161.42 146.3 153.53"/><polygon class="cls-8" points="177.88 148.7 167.79 157.91 155.07 150.89 162.53 140.37 155.07 128.53 166.48 117.56 182.7 122.39 191.03 139.93 177.88 148.7"/><polygon class="cls-7" points="79.98 137.61 69.1 120.27 81.68 99.86 91.54 104.86 102.76 102.17 108.2 110.75 104.12 124.06 96.3 125.71 99.36 133.53 88.65 143.73 79.98 137.61"/><polygon class="cls-8" points="104.46 133.87 96.64 141.01 86.78 135.57 92.56 127.41 86.78 118.23 95.62 109.73 108.2 113.47 114.67 127.07 104.46 133.87"/><polygon class="cls-7" points="323.15 128.03 293.04 133.18 270.09 105.71 282.09 95.34 283.77 79.09 298.7 76.46 315.68 88.93 314.19 100.14 326.86 100.25 336.15 119.82 323.15 128.03"/><polygon class="cls-8" points="329.85 93.69 336.2 107.82 323.58 117.96 314.78 105.98 298.83 108.74 291.05 92.54 302.58 77.91 325.17 76.6 329.85 93.69"/><path class="cls-9" d="M432.65,101.92c0,35.87-73.48,64.94-164.12,64.94s-164.12-29.07-164.12-64.94c0-11.73,7.87-22.74,21.63-32.25C119,76.05,115.12,83,115.12,90.31c0,30.7,68.68,55.59,153.41,55.59S421.94,121,421.94,90.31c0-7.29-3.87-14.26-10.92-20.64C424.78,79.18,432.65,90.19,432.65,101.92Z" transform="translate(-75.61 -1.29)"/><path class="cls-6" d="M411,69.67C382.72,50.14,329.51,37,268.53,37S154.34,50.14,126,69.67c22.61-20.49,77.88-35,142.49-35S388.41,49.18,411,69.67Z" transform="translate(-75.61 -1.29)"/><polygon class="cls-10" points="122.88 92.78 164.69 117.95 141.59 126 136.93 150.81 127.06 142.48 104.59 143.76 100.81 98.91 122.88 92.78"/><polygon class="cls-8" points="119.26 93.22 145.01 95.73 142.13 114.19 153.69 136.69 111.87 105.79 96.64 121.5 104.78 93.91 119.26 93.22"/><polygon class="cls-10" points="166.18 99.7 220.53 67.85 215.13 100.67 240.04 123.36 224.54 129.22 211.93 156.61 159.26 129.98 166.18 99.7"/><polygon class="cls-8" points="210.21 144.49 179.16 156.31 171.94 131.78 145.81 110.61 211.54 124.63 220.07 96.34 226.46 135.24 210.21 144.49"/><polygon class="cls-10" points="291.05 93.23 320.67 54.45 326.13 78.3 350.28 85.66 340.92 94.55 339.72 117.03 294.72 115.84 291.05 93.23"/><polygon class="cls-8" points="325.66 112.19 300.15 107.8 304.38 89.61 294.5 66.32 333.95 100.2 350.28 85.64 340.14 112.56 325.66 112.19"/><polygon class="cls-10" points="299.19 128.97 245.57 144.94 256.6 119.15 239.18 96.04 253.85 94.12 270.13 74.09 311.05 105.54 299.19 128.97"/><polygon class="cls-8" points="271.99 139.38 247.56 122.55 260.7 105.65 261.61 76.66 286.38 130.88 310.38 123.58 286.89 146.73 271.99 139.38"/><path class="cls-11" d="M459.78,24l1.54,10.84c3.95,28-78.82,62-184.87,76.07S81.21,113.65,77.25,85.68L75.72,74.84Z" transform="translate(-75.61 -1.29)"/><ellipse class="cls-12" cx="267.72" cy="49.43" rx="193.7" ry="41.28" transform="translate(-79.77 34.14) rotate(-7.51)"/><polygon class="cls-13" points="146.67 38.29 160.34 29.3 155.61 15.64 141.94 24.63 146.67 38.29"/><polygon class="cls-14" points="208.56 15.64 141.94 24.63 155.61 15.63 222.88 6.09 208.56 15.64"/><polygon class="cls-15" points="214.18 31.54 228.5 21.99 222.88 6.09 208.56 15.64 214.18 31.54"/></g></svg>