<svg id="dropMenu" xmlns="http://www.w3.org/2000/svg" width="519.65" height="490.34" viewBox="0 0 519.65 490.34"><defs><style>.cls-1{fill:none;}.cls-2{fill:#231f20;}</style></defs><g id="Open"><line class="cls-1" x1="519.65" y1="490.34" x2="29.31"/><polygon class="cls-2" points="518.61 126.52 518.61 396.96 248.17 396.96 518.61 126.52"/><line class="cls-1" x1="29.31" x2="519.65" y2="490.34"/><path class="cls-2" d="M327.86,151a292.77,292.77,0,0,0-128-23A226.41,226.41,0,0,0,66.71,193.12c-75,75-86.92,188.9-34.9,273.93-24.21-96.91,32.27-196.49,129-224.8A187.12,187.12,0,0,1,354,298.31l79.15-23.17,29.91-8.75A294.06,294.06,0,0,0,327.86,151Z" transform="translate(0)"/></g></svg>