<svg id="icons" xmlns="http://www.w3.org/2000/svg" xmlns:xlink="http://www.w3.org/1999/xlink" width="519.65" height="403.41" viewBox="0 0 519.65 403.41"><defs><style>.cls-1{fill:#75593e;}.cls-2{fill:#a67c52;}.cls-3{fill:#826d57;}.cls-4{fill:url(#linear-gradient);}.cls-5{fill:#383838;}.cls-6{fill:#666;}.cls-7{fill:#654;}.cls-8{fill:#454545;}.cls-9{fill:url(#linear-gradient-2);}.cls-10{fill:url(#linear-gradient-3);}.cls-11{fill:url(#linear-gradient-4);}</style><linearGradient id="linear-gradient" x1="21.62" y1="316.65" x2="267.42" y2="-183.22" gradientUnits="userSpaceOnUse"><stop offset="0" stop-color="#9c7e59"/><stop offset="0.04" stop-color="#8d6e51"/><stop offset="0.1" stop-color="#82624a"/><stop offset="0.15" stop-color="#7e5e48"/><stop offset="0.34" stop-color="#8c6e51"/><stop offset="0.45" stop-color="#ad8c64"/><stop offset="0.6" stop-color="#8c6947"/><stop offset="0.69" stop-color="#7f5b3c"/><stop offset="0.87" stop-color="#d1a979"/><stop offset="0.89" stop-color="#c8a172"/><stop offset="0.93" stop-color="#b08c61"/><stop offset="0.98" stop-color="#886944"/><stop offset="1" stop-color="#7b5d3a"/></linearGradient><linearGradient id="linear-gradient-2" x1="378.48" y1="196.72" x2="362.66" y2="227.74" gradientUnits="userSpaceOnUse"><stop offset="0.53" stop-color="#fff"/><stop offset="0.59" stop-color="#787878"/><stop offset="1" stop-color="#4d4d4d"/></linearGradient><linearGradient id="linear-gradient-3" x1="373.83" y1="229.49" x2="373.76" y2="273.34" gradientUnits="userSpaceOnUse"><stop offset="0.27" stop-color="#fff"/><stop offset="0.3" stop-color="#f0f0f0"/><stop offset="0.4" stop-color="#bcbcbc"/><stop offset="0.48" stop-color="#979797"/><stop offset="0.55" stop-color="gray"/><stop offset="0.59" stop-color="#787878"/><stop offset="0.89" stop-color="#535353"/><stop offset="0.94" stop-color="#4d4d4d"/></linearGradient><linearGradient id="linear-gradient-4" x1="309.92" y1="222.9" x2="286.85" y2="271.22" gradientUnits="userSpaceOnUse"><stop offset="0.18" stop-color="#fff"/><stop offset="0.44" stop-color="#787878"/><stop offset="0.71" stop-color="#4d4d4d"/><stop offset="0.96" stop-color="#4d4d4d"/></linearGradient></defs><g id="stash"><polyline class="cls-1" points="280.63 0 359.35 0 359.35 324.71 0 324.71 0 0 78.72 0"/><polygon class="cls-2" points="515.65 84 359.35 5.29 359.35 324.71 515.65 403.41 515.65 84"/><polygon class="cls-3" points="519.65 78.7 504.63 78.7 348.34 0 363.36 0 519.65 78.7"/><polygon class="cls-4" points="156.29 78.7 0 0 0 324.71 156.29 403.41 156.29 78.7"/><polygon class="cls-5" points="519.65 78.7 519.65 403.41 156.29 403.41 156.29 78.7 235.89 78.7 235.89 105.82 440.05 105.82 440.05 78.7 519.65 78.7"/><polygon class="cls-3" points="160.79 73.41 156.29 78.7 0 0 15.02 0 160.79 73.41"/><polygon class="cls-6" points="225.39 73.41 235.89 78.7 156.29 78.7 145.78 73.41 225.39 73.41"/><polygon class="cls-7" points="363.36 0.01 373.86 5.29 10.51 5.29 0 0 363.36 0.01"/><polygon class="cls-6" points="429.47 100.53 439.97 105.82 235.36 105.82 235.36 100.53 429.47 100.53"/><polygon class="cls-6" points="509.14 73.41 519.65 78.7 440.05 78.7 429.55 73.41 509.14 73.41"/><polygon class="cls-8" points="440.05 105.82 429.47 100.53 429.55 73.41 440.05 78.7 440.05 105.82"/><polygon class="cls-8" points="156.29 403.41 145.72 398.12 145.86 73.41 156.36 78.71 156.29 403.41"/><path class="cls-9" d="M434.1,259.44c-2.59,7.41-12.12,7.93-12.12,7.93l-97.64,0c-.91,0-1.79,0-2.62,0a51.07,51.07,0,0,1-8.9-1.06,20.29,20.29,0,0,1-5.52-1.88l-27.1-13.58,0,0-1.49-.74-4-2.1a8,8,0,1,1,7.05-14.23l4,2.09,2.13,1.06-.56-.27,27.14,13.59a22,22,0,0,0,5.93,1.11l1.36.1c.81,0,1.69.07,2.64.07h76.82l-.14-.07-3.55-1.79-3.22-1.69a8,8,0,0,1,2.82-15.45,7.89,7.89,0,0,1,4.3,1.26l29.44,14.83a8.78,8.78,0,0,1,2.73,2.84A9.08,9.08,0,0,1,434.1,259.44Z" transform="translate(0 -84.47)"/><path class="cls-10" d="M434.1,259.44c-2.59,7.41-12.12,7.93-12.12,7.93l-97.64,0c-.91,0-1.79,0-2.62,0a51.07,51.07,0,0,1-8.9-1.06V251.42H417.38c6.92-.71,10.62-1.74,13.43-2.84a8.85,8.85,0,0,1,3.29,10.86Z" transform="translate(0 -84.47)"/><path class="cls-11" d="M322.68,258.3a30.94,30.94,0,0,1-1,9.05,51.07,51.07,0,0,1-8.9-1.06,20.29,20.29,0,0,1-5.52-1.88l-27.1-13.58,0,0-1.49-.74-4-2.1a8,8,0,1,1,7.05-14.23l4,2.09,2.13,1.06-.56-.27,27.14,13.59a19,19,0,0,0,5.86,1.18l.43,0A14.23,14.23,0,0,1,322.68,258.3Z" transform="translate(0 -84.47)"/></g></svg>