<svg id="icons" xmlns="http://www.w3.org/2000/svg" xmlns:xlink="http://www.w3.org/1999/xlink" width="519.65" height="453.53" viewBox="0 0 519.65 453.53"><defs><style>.cls-1{fill:#75593e;}.cls-2{fill:#a67c52;}.cls-3{fill:#654;}.cls-4{fill:#e8c25a;}.cls-5{fill:#f66;}.cls-6{fill:#dbdbdb;}.cls-7{fill:#e6e6e6;}.cls-8{fill:#f2f2f2;}.cls-9{fill:#f7d368;}.cls-10{fill:#65db7f;}.cls-11{fill:#ffdf89;}.cls-12{fill:#7ab9ff;}.cls-13{fill:url(#linear-gradient);}.cls-14{fill:#383838;}.cls-15{fill:#826d57;}.cls-16{fill:#666;}.cls-17{fill:#454545;}.cls-18{fill:url(#linear-gradient-2);}.cls-19{fill:url(#linear-gradient-3);}.cls-20{fill:url(#linear-gradient-4);}</style><linearGradient id="linear-gradient" x1="21.62" y1="366.78" x2="267.42" y2="-133.1" gradientUnits="userSpaceOnUse"><stop offset="0" stop-color="#9c7e59"/><stop offset="0.04" stop-color="#8d6e51"/><stop offset="0.1" stop-color="#82624a"/><stop offset="0.15" stop-color="#7e5e48"/><stop offset="0.34" stop-color="#8c6e51"/><stop offset="0.45" stop-color="#ad8c64"/><stop offset="0.6" stop-color="#8c6947"/><stop offset="0.69" stop-color="#7f5b3c"/><stop offset="0.87" stop-color="#d1a979"/><stop offset="0.89" stop-color="#c8a172"/><stop offset="0.93" stop-color="#b08c61"/><stop offset="0.98" stop-color="#886944"/><stop offset="1" stop-color="#7b5d3a"/></linearGradient><linearGradient id="linear-gradient-2" x1="378.48" y1="196.89" x2="362.66" y2="227.91" gradientUnits="userSpaceOnUse"><stop offset="0.53" stop-color="#fff"/><stop offset="0.59" stop-color="#787878"/><stop offset="1" stop-color="#4d4d4d"/></linearGradient><linearGradient id="linear-gradient-3" x1="373.83" y1="229.66" x2="373.76" y2="273.52" gradientUnits="userSpaceOnUse"><stop offset="0.27" stop-color="#fff"/><stop offset="0.3" stop-color="#f0f0f0"/><stop offset="0.4" stop-color="#bcbcbc"/><stop offset="0.48" stop-color="#979797"/><stop offset="0.55" stop-color="gray"/><stop offset="0.59" stop-color="#787878"/><stop offset="0.89" stop-color="#535353"/><stop offset="0.94" stop-color="#4d4d4d"/></linearGradient><linearGradient id="linear-gradient-4" x1="309.92" y1="223.07" x2="286.85" y2="271.39" gradientUnits="userSpaceOnUse"><stop offset="0.18" stop-color="#fff"/><stop offset="0.44" stop-color="#787878"/><stop offset="0.71" stop-color="#4d4d4d"/><stop offset="0.96" stop-color="#4d4d4d"/></linearGradient></defs><g id="stash"><polyline class="cls-1" points="283.76 50.12 363.36 50.12 363.36 374.83 0 374.83 0 50.12 79.6 50.12"/><polygon class="cls-2" points="519.65 128.82 363.36 50.12 363.36 374.83 519.65 453.53 519.65 128.82"/><polygon class="cls-3" points="519.65 128.82 504.63 128.82 348.34 50.12 363.36 50.12 519.65 128.82"/><g id="Layer_53" data-name="Layer 53"><path class="cls-4" d="M343.31,59.79V256.33c0,.28,0,.57,0,.85s0,.53-.06.8a.19.19,0,0,1,0,.08,6.48,6.48,0,0,1-.08.77c0,.28-.08.55-.14.81s-.11.54-.17.8c-.11.46-.23.92-.38,1.36-.05.16-.11.32-.17.47a16.94,16.94,0,0,1-.81,1.9l-.34.64c-.07.13-.14.25-.22.37l-.33.54a16,16,0,0,1-2.26,2.77c-.18.18-.36.35-.56.52s-.42.37-.63.54c-.38.3-.76.57-1.16.83l-.64.4-.65.36h0c-.22.12-.45.22-.67.33a14,14,0,0,1-1.4.55c-.42.14-.83.26-1.25.36l-.24.06-.73.13-.46.07-.19,0-.34,0c-.16,0-.31,0-.48,0l-.85,0H31a14.38,14.38,0,0,1-7.5-2.12,16.66,16.66,0,0,1-7.75-14.31V59.79c0-.28,0-.57,0-.85s0-.53,0-.8a.22.22,0,0,1,0-.08c0-.26.05-.52.09-.77s.08-.55.14-.81.11-.54.17-.8a12.42,12.42,0,0,1,.38-1.36c.05-.16.11-.32.17-.47a16.94,16.94,0,0,1,.81-1.9c.11-.21.22-.43.34-.64a16.32,16.32,0,0,1,2.29-3.14c.17-.19.35-.37.53-.55s.36-.34.55-.51a15,15,0,0,1,3.89-2.52,4.4,4.4,0,0,1,.5-.21l.5-.19.48-.16a10.52,10.52,0,0,1,1-.29l.51-.11.08,0,.49-.08a4.68,4.68,0,0,1,.54-.08l.36,0,.44,0c.28,0,.58,0,.87,0h297a14.38,14.38,0,0,1,7.5,2.12A16.68,16.68,0,0,1,343.31,59.79Z" transform="translate(0 -34.52)"/><polygon class="cls-5" points="349.4 19.59 349.4 333.18 26.26 333.18 26.26 0 90.45 0 90.45 19.59 349.4 19.59"/><rect class="cls-6" x="26.26" y="19.53" width="323.13" height="333.18"/><rect class="cls-7" x="35.79" y="25.18" width="323.13" height="333.18"/><rect class="cls-8" x="46" y="30.24" width="323.13" height="333.18"/><path class="cls-4" d="M384.59,96.38V292.92c0,.28,0,.57,0,.85s0,.53-.06.8a.19.19,0,0,1,0,.08c0,.26-.05.52-.09.77s-.07.55-.13.81-.11.54-.17.8c-.11.46-.24.92-.38,1.36-.05.16-.11.32-.17.47a16.94,16.94,0,0,1-.81,1.9l-.35.64a2.71,2.71,0,0,1-.21.37c-.11.19-.22.37-.34.54a15.93,15.93,0,0,1-2.25,2.77c-.19.18-.36.35-.56.52a8.3,8.3,0,0,1-.64.54,13.42,13.42,0,0,1-1.15.83l-.64.4-.65.36h0c-.22.12-.45.22-.67.33-.47.21-.93.39-1.41.55s-.82.26-1.24.36l-.25.06-.72.13-.46.07-.19,0-.34,0-.48,0c-.29,0-.57,0-.86,0h-297a14.35,14.35,0,0,1-7.5-2.12,16.67,16.67,0,0,1-7.76-14.31V96.38c0-.28,0-.57,0-.85s0-.53.06-.8a.22.22,0,0,1,0-.08c0-.26.05-.52.09-.77s.08-.55.14-.81.1-.54.16-.8c.11-.46.24-.92.39-1.36,0-.16.1-.32.16-.47a17,17,0,0,1,.82-1.9c.1-.21.22-.43.34-.64a16.71,16.71,0,0,1,2.28-3.14l.53-.55.55-.51a15.06,15.06,0,0,1,3.9-2.52A4.4,4.4,0,0,1,67,81l.5-.19c.15-.06.32-.11.48-.16a10.52,10.52,0,0,1,1-.29l.51-.11.07,0,.49-.08a5.42,5.42,0,0,1,.54-.08L71,80l.44,0c.28,0,.58,0,.87,0h297a14.32,14.32,0,0,1,7.5,2.12A16.69,16.69,0,0,1,384.59,96.38Z" transform="translate(0 -34.52)"/><path class="cls-9" d="M400.7,89.2V285.74c0,.28,0,.57,0,.85s0,.53-.06.8a.19.19,0,0,1,0,.08c0,.26,0,.52-.08.77s-.08.55-.14.81-.11.54-.17.8c-.11.46-.23.92-.38,1.36,0,.16-.11.32-.17.47a16.94,16.94,0,0,1-.81,1.9l-.34.64c-.07.13-.14.25-.22.37l-.33.54a16,16,0,0,1-2.26,2.77c-.18.18-.36.35-.56.52s-.42.37-.63.54c-.38.3-.76.57-1.16.83l-.64.4-.65.36h0c-.22.12-.45.22-.67.33a14,14,0,0,1-1.4.55c-.42.14-.83.26-1.25.36l-.24.06-.73.13-.46.07-.19,0-.34,0c-.16,0-.31,0-.48,0l-.85,0h-297a14.38,14.38,0,0,1-7.5-2.12,16.66,16.66,0,0,1-7.75-14.31V89.2c0-.28,0-.57,0-.85a7.16,7.16,0,0,1,0-.8.22.22,0,0,1,0-.08c0-.26,0-.52.09-.77s.08-.55.14-.81.11-.54.17-.8A12.42,12.42,0,0,1,74,83.73c0-.16.11-.32.17-.47a15.27,15.27,0,0,1,.81-1.9c.11-.21.22-.43.34-.64a16.32,16.32,0,0,1,2.29-3.14c.17-.19.35-.37.53-.55s.36-.34.55-.51A15,15,0,0,1,82.62,74a4.4,4.4,0,0,1,.5-.21l.5-.19.48-.16a10.52,10.52,0,0,1,1-.29l.51-.11.08,0,.49-.08a4.68,4.68,0,0,1,.54-.08l.36,0,.44,0c.28,0,.58,0,.87,0h297a14.38,14.38,0,0,1,7.5,2.12A16.68,16.68,0,0,1,400.7,89.2Z" transform="translate(0 -34.52)"/><polygon class="cls-10" points="406.78 49 406.78 362.59 83.65 362.59 83.65 29.41 147.83 29.41 147.83 49 406.78 49"/><rect class="cls-6" x="83.63" y="49" width="323.13" height="333.18"/><rect class="cls-7" x="93.16" y="54.65" width="323.13" height="333.18"/><rect class="cls-8" x="103.37" y="59.71" width="323.13" height="333.18"/><path class="cls-9" d="M442,125.79V322.33c0,.28,0,.57,0,.85s0,.53-.06.8a.19.19,0,0,1,0,.08c0,.26-.05.52-.09.77s-.07.55-.13.81-.11.54-.17.8c-.11.46-.24.92-.38,1.36-.05.16-.11.32-.17.47a16.94,16.94,0,0,1-.81,1.9l-.35.64a2.71,2.71,0,0,1-.21.37c-.11.19-.22.37-.34.54a15.93,15.93,0,0,1-2.25,2.77c-.19.18-.36.35-.56.52s-.42.37-.64.54a13.42,13.42,0,0,1-1.15.83l-.64.4-.65.36h0c-.22.12-.45.22-.67.33-.47.21-.93.39-1.41.55s-.82.26-1.24.36l-.25.06-.72.13-.46.07-.19,0-.34,0-.48,0c-.29,0-.57,0-.86,0h-297a14.32,14.32,0,0,1-7.5-2.12,16.67,16.67,0,0,1-7.76-14.31V125.79c0-.28,0-.57,0-.85s0-.53.06-.8a.22.22,0,0,1,0-.08c0-.26,0-.52.09-.77s.08-.55.14-.81.1-.54.16-.8c.11-.46.24-.92.39-1.36.05-.16.1-.32.16-.47a17,17,0,0,1,.82-1.9c.1-.21.22-.43.34-.64a16.71,16.71,0,0,1,2.28-3.14l.53-.55.55-.51a15.06,15.06,0,0,1,3.9-2.52,4.4,4.4,0,0,1,.5-.21l.5-.19c.15-.06.32-.11.48-.16a10.52,10.52,0,0,1,1-.29l.51-.11.07,0,.49-.08a5.42,5.42,0,0,1,.54-.08l.37,0,.44,0c.28,0,.58,0,.87,0h297a14.32,14.32,0,0,1,7.5,2.12A16.69,16.69,0,0,1,442,125.79Z" transform="translate(0 -34.52)"/><path class="cls-11" d="M458.78,119.14V315.68c0,.28,0,.57,0,.85s0,.53-.06.8a.19.19,0,0,1,0,.08c0,.26-.05.52-.09.77a6.85,6.85,0,0,1-.13.81c-.05.27-.11.54-.17.8-.11.46-.23.92-.38,1.36-.05.16-.11.32-.17.47a16.94,16.94,0,0,1-.81,1.9l-.35.64a2.71,2.71,0,0,1-.21.37q-.17.29-.33.54a16.46,16.46,0,0,1-2.26,2.77c-.19.18-.36.35-.56.52a8.3,8.3,0,0,1-.64.54,13.42,13.42,0,0,1-1.15.83l-.64.4-.65.36h0c-.22.12-.45.22-.67.33a14.19,14.19,0,0,1-1.41.55c-.41.14-.82.26-1.24.36l-.25.06-.72.13-.46.07-.19,0-.34,0-.48,0c-.29,0-.57,0-.86,0h-297A14.35,14.35,0,0,1,139,330a16.67,16.67,0,0,1-7.76-14.31V119.14c0-.28,0-.57,0-.85s0-.53.06-.8a.22.22,0,0,1,0-.08c0-.26,0-.52.09-.77s.08-.55.14-.81.11-.54.16-.8c.11-.46.24-.92.39-1.36,0-.16.1-.32.16-.47a17,17,0,0,1,.82-1.9c.11-.21.22-.43.34-.64a16.71,16.71,0,0,1,2.28-3.14l.53-.55.55-.51a15.06,15.06,0,0,1,3.9-2.52,4.4,4.4,0,0,1,.5-.21l.5-.19c.15-.06.32-.11.48-.16a10.52,10.52,0,0,1,1-.29l.51-.11.07,0,.49-.08a5.42,5.42,0,0,1,.54-.08l.37,0,.44,0c.28,0,.58,0,.87,0h297a14.39,14.39,0,0,1,7.51,2.12A16.7,16.7,0,0,1,458.78,119.14Z" transform="translate(0 -34.52)"/><polygon class="cls-12" points="141.73 59.35 141.73 392.53 464.86 392.53 464.86 78.71 205.91 78.71 205.91 59.35 141.73 59.35"/><rect class="cls-6" x="141.73" y="78.35" width="323.13" height="333.18"/><rect class="cls-7" x="151.26" y="84" width="323.13" height="333.18"/><rect class="cls-8" x="161.47" y="89.06" width="323.13" height="333.18"/><path class="cls-11" d="M500.06,155.73V352.27c0,.28,0,.57,0,.85s0,.53-.06.8a.19.19,0,0,1,0,.08c0,.26-.05.52-.09.77s-.08.55-.13.81-.11.54-.17.8c-.11.46-.24.92-.38,1.36-.05.16-.11.32-.17.47a19,19,0,0,1-.81,1.9l-.35.64c-.07.13-.13.25-.21.37s-.22.37-.34.54a15.93,15.93,0,0,1-2.25,2.77c-.19.18-.36.35-.56.52s-.42.37-.64.54a12.16,12.16,0,0,1-1.16.83c-.2.14-.42.27-.63.4l-.65.36h0c-.22.12-.45.22-.68.33a14,14,0,0,1-1.4.55c-.41.14-.82.26-1.24.36l-.25.06-.72.13-.46.07-.19,0-.34,0-.48,0c-.29,0-.57,0-.86,0h-297a14.32,14.32,0,0,1-7.5-2.12,16.67,16.67,0,0,1-7.76-14.31V155.73c0-.28,0-.57,0-.85s0-.53.06-.8a.22.22,0,0,1,0-.08c0-.26,0-.52.09-.77s.08-.55.14-.81.1-.54.16-.8c.11-.46.24-.92.38-1.36.05-.16.11-.32.17-.47a19,19,0,0,1,.81-1.9l.35-.64a16.71,16.71,0,0,1,2.28-3.14l.53-.55.55-.51a15.18,15.18,0,0,1,3.89-2.52l.5-.21.5-.19.48-.16c.34-.11.69-.21,1-.29l.51-.11.08,0,.49-.08a5.42,5.42,0,0,1,.54-.08l.36,0,.45,0q.42,0,.87,0h297a14.32,14.32,0,0,1,7.5,2.12A16.69,16.69,0,0,1,500.06,155.73Z" transform="translate(0 -34.52)"/></g><polygon class="cls-13" points="156.29 128.82 0 50.12 0 374.83 156.29 453.53 156.29 128.82"/><polygon class="cls-14" points="519.65 128.82 519.65 453.53 156.29 453.53 156.29 128.82 235.89 128.82 235.89 155.94 440.05 155.94 440.05 128.82 519.65 128.82"/><polygon class="cls-15" points="160.79 123.53 156.29 128.82 0 50.12 15.02 50.12 160.79 123.53"/><polygon class="cls-16" points="225.39 123.53 235.89 128.82 156.29 128.82 145.78 123.53 225.39 123.53"/><polygon class="cls-16" points="429.47 150.65 439.97 155.94 235.36 155.94 235.36 150.65 429.47 150.65"/><polygon class="cls-16" points="509.14 123.53 519.65 128.82 440.05 128.82 429.55 123.53 509.14 123.53"/><polygon class="cls-17" points="440.05 155.94 429.47 150.65 429.55 123.53 440.05 128.82 440.05 155.94"/><polygon class="cls-17" points="156.29 453.53 145.72 448.24 145.86 123.53 156.36 128.83 156.29 453.53"/><path class="cls-18" d="M434.1,259.61C431.51,267,422,267.54,422,267.54l-97.64,0c-.91,0-1.79,0-2.62-.05a51.07,51.07,0,0,1-8.9-1.06,20.29,20.29,0,0,1-5.52-1.88L280.2,251l0,0-1.49-.74-4-2.1a8,8,0,1,1,7.05-14.23l4,2.09,2.13,1.06-.56-.27,27.14,13.59a22,22,0,0,0,5.93,1.11l1.36.1c.81,0,1.69.07,2.64.07h76.82l-.14-.07-3.55-1.79-3.22-1.69a8,8,0,0,1,2.82-15.45,7.89,7.89,0,0,1,4.3,1.26l29.44,14.83a8.78,8.78,0,0,1,2.73,2.84A9.08,9.08,0,0,1,434.1,259.61Z" transform="translate(0 -34.52)"/><path class="cls-19" d="M434.1,259.61C431.51,267,422,267.54,422,267.54l-97.64,0c-.91,0-1.79,0-2.62-.05a51.07,51.07,0,0,1-8.9-1.06V251.59H417.38c6.92-.71,10.62-1.73,13.43-2.84a8.85,8.85,0,0,1,3.29,10.86Z" transform="translate(0 -34.52)"/><path class="cls-20" d="M322.68,258.47a30.94,30.94,0,0,1-1,9,51.07,51.07,0,0,1-8.9-1.06,20.29,20.29,0,0,1-5.52-1.88L280.18,251l0,0-1.49-.74-4-2.1a8,8,0,1,1,7.05-14.23l4,2.09,2.13,1.06-.56-.27,27.14,13.59a19,19,0,0,0,5.86,1.18l.43,0A14.23,14.23,0,0,1,322.68,258.47Z" transform="translate(0 -34.52)"/></g></svg>