<?xml version="1.0" encoding="utf-8"?>
<!-- Generator: Adobe Illustrator 25.3.1, SVG Export Plug-In . SVG Version: 6.00 Build 0)  -->
<svg version="1.1" xmlns="http://www.w3.org/2000/svg" xmlns:xlink="http://www.w3.org/1999/xlink" x="0px" y="0px"
	 viewBox="0 0 519.7 519.7" style="enable-background:new 0 0 519.7 519.7;" xml:space="preserve">
<style type="text/css">
	.st0{display:none;}
	.st1{display:inline;opacity:0.82;}
	.st2{display:inline;fill:#FFFFFF;}
	.st3{fill:#FFFFFF;}
	.st4{display:inline;fill:#231F20;}
	.st5{display:inline;}
	.st6{fill:#231F20;}
	.st7{display:inline;fill:none;}
</style>
<g id="background" class="st0">
	<rect class="st1" width="519.7" height="519.7"/>
</g>
<g id="misc">
	<g id="ship3" class="st0">
		<polygon class="st2" points="374,18.7 374,53.6 53.6,53.6 53.6,374 18.7,374 18.7,18.7 		"/>
		<polygon class="st2" points="437.5,82.2 437.5,117.1 117.1,117.1 117.1,437.5 82.2,437.5 82.2,82.2 		"/>
		<rect x="145.7" y="145.7" class="st2" width="355.3" height="355.3"/>
	</g>
	<g id="ship2">
		<polygon class="st3" points="374,18.7 374,53.6 53.6,53.6 53.6,374 18.7,374 18.7,18.7 		"/>
		<rect x="82.2" y="82.2" class="st3" width="355.3" height="355.3"/>
	</g>
	<g id="ship1" class="st0">
		<rect x="82.2" y="82.2" class="st2" width="355.3" height="355.3"/>
	</g>
</g>
<g id="dropMenu">
	<g id="Properties" class="st0">
		<path class="st4" d="M519.7,156.1v363.5H308.9c52.6-41.7,83.2-105.1,83.2-172.2c0-121.4-98.4-219.9-219.9-219.9
			c-19.1,0-38,2.4-56.5,7.3V0h247.8L519.7,156.1z"/>
		<path class="st4" d="M172.2,175.2C77.1,175.2,0,252.3,0,347.4s77.1,172.2,172.2,172.2s172.2-77.1,172.2-172.2l0,0
			C344.5,252.3,267.4,175.2,172.2,175.2z M201,440.4h-57.5V338.2H201L201,440.4z M201,314.4h-57.5v-57.5H201L201,314.4z"/>
	</g>
	<g id="Rename" class="st0">
		<rect x="225.9" class="st4" width="67.8" height="519.7"/>
		<path class="st4" d="M153.6,451.9v67.8h212.5v-67.8H153.6z"/>
		<path class="st4" d="M153.6,0v67.8h212.5V0H153.6z"/>
		<rect x="329.9" y="150.5" class="st4" width="189.7" height="218.7"/>
		<rect x="0" y="150.5" class="st4" width="189.7" height="218.7"/>
	</g>
	<g id="Delete" class="st0">
		<path class="st4" d="M57.9,109.1v410.5h403.9V109.1H57.9z M172.1,458.6h-53.8V170.2h53.8V458.6z M286.7,458.6h-53.8V170.2h53.8
			V458.6z M401.4,458.6h-53.8V170.2h53.8V458.6z"/>
		<rect class="st4" width="519.7" height="67.8"/>
	</g>
	<g id="Paste" class="st0">
		<path class="st4" d="M381.3,36.8v107.3H138.4V36.8H57.9v482.8h403.9V36.8H381.3z M381.3,420H138.4v-45.3h242.9V420z M381.3,344.5
			H138.4v-45.3h242.9V344.5z M381.3,268.9H138.4v-45.3h242.9V268.9z"/>
		<rect x="179.3" y="0" class="st4" width="161.1" height="103.3"/>
	</g>
	<g id="Copy" class="st0">
		<g class="st5">
			<polygon class="st6" points="473.4,166.4 473.4,420.8 401.8,420.8 401.8,213.1 264.4,75.7 146.3,75.7 146.3,0 306.9,0 			"/>
			<path class="st6" d="M246.9,98.8H46.3v420.8h327.1V225.3L246.9,98.8z M308.2,439H111.5v-36.7h196.7V439z M308.2,377.8H111.5
				v-36.7h196.7V377.8z M308.2,316.6H111.5v-36.7h196.7V316.6z"/>
		</g>
	</g>
	<g id="Cut" class="st0">
		<path class="st4" d="M442.1,53.1L429.5,0l-154,240.1l55.1,77.1c10-16.5,17.8-29.3,24.9-40.9c14.3-23.4,37.9-66.7,56.1-106.7
			C445.8,94.2,445.4,67,442.1,53.1z M467,424.1c-3.4-49.2-46.1-86.3-95.3-82.9c0,0,0,0,0,0l-0.9,0.1c-28.7,3.5-43.6,4.7-54.5-0.3
			c-11.2-5.4-56.4-76.6-56.4-76.6l0,0L90.2,0L77.5,53.1c-3.3,13.9-3.7,41.1,30.6,116.5c18.2,40,41.8,83.4,56.1,106.7
			c12.6,20.7,28,46,39.2,64.6c-11,5-25.9,3.8-54.5,0.3l-0.9-0.1c-49.2-3.4-91.9,33.7-95.3,82.9s33.7,91.9,82.9,95.3
			c21.5,1.5,42.9-4.9,60.1-17.9c19.7-15,30.5-42.4,40.8-69c5.2-13.3,10.1-25.8,15.4-34.5c1.2-2,3.1-3.6,5.3-4.5
			c0.8-0.3,1.7-0.5,2.6-0.5c0.9,0,1.8,0.2,2.7,0.5c2.2,0.9,4.1,2.5,5.3,4.5c5.3,8.7,10.2,21.2,15.4,34.5c10.4,26.6,21.1,54,40.9,69
			c15.5,11.7,34.4,18.1,53.9,18.1c2.1,0,4.2-0.1,6.3-0.2c46.8-3.2,83.1-42.1,83.1-89C467.2,428.3,467.2,426.2,467,424.1L467,424.1z
			 M161.9,467.3c-20.5,11.2-46.2,3.6-57.3-16.9s-3.6-46.2,16.9-57.3c20.5-11.2,46.1-3.6,57.3,16.9
			C190,430.5,182.4,456.1,161.9,467.3L161.9,467.3z M415.1,450.4c-11.2,20.5-36.8,28-57.3,16.9c-20.5-11.2-28-36.8-16.9-57.3
			c11.2-20.5,36.8-28,57.3-16.9C418.7,404.3,426.2,429.9,415.1,450.4L415.1,450.4z"/>
	</g>
	<g id="NewTab" class="st0">
		<g class="st5">
			<path class="st6" d="M451.9,259.8v192.1H67.8V67.8h192.1L192.1,0H0v519.6h519.6V327.6L451.9,259.8z"/>
			<polygon class="st6" points="519.6,0 519.6,259.8 259.8,0 			"/>
			
				<rect x="250.6" y="126.5" transform="matrix(0.7071 -0.7071 0.7071 0.7071 -32.7785 290.8292)" class="st6" width="168" height="117"/>
		</g>
	</g>
	<g id="FullScreen" class="st0">
		<path class="st4" d="M0,0v519.6h519.6V0H0z M451.9,451.9H67.8V177.3h384.1V451.9z"/>
	</g>
	<g id="Open" class="st0">
		<polygon class="st4" points="439.7,519.7 0,519.7 0,79.9 		"/>
		<line class="st7" x1="513.7" y1="513.7" x2="5.9" y2="5.9"/>
		<polygon class="st4" points="79.9,0 519.7,0 519.7,439.7 		"/>
		<line class="st7" x1="5.9" y1="5.9" x2="513.7" y2="513.7"/>
	</g>
</g>
</svg>
