<?xml version="1.0" encoding="utf-8"?>
<!-- Generator: Adobe Illustrator 25.3.1, SVG Export Plug-In . SVG Version: 6.00 Build 0)  -->
<svg version="1.1" xmlns="http://www.w3.org/2000/svg" xmlns:xlink="http://www.w3.org/1999/xlink" x="0px" y="0px"
	 viewBox="0 0 519.7 519.7" style="enable-background:new 0 0 519.7 519.7;" xml:space="preserve">
<style type="text/css">
	.st0{display:none;}
	.st1{display:inline;fill:#333333;}
	.st2{display:inline;}
	.st3{fill:#FFFFFF;}
	.st4{display:inline;fill:#FFFFFF;}
	.st5{fill:#333333;}
	.st6{display:inline;fill:none;}
	.st7{fill:#4D4D4D;}
	.st8{font-family:'FranklinGothic-Heavy';}
	.st9{font-size:49.5771px;}
	.st10{display:inline;fill:#808080;}
	.st11{fill:none;stroke:#FFFFFF;stroke-width:10;stroke-miterlimit:10;}
	.st12{fill:none;stroke:#FFFFFF;stroke-width:10;stroke-linecap:square;stroke-miterlimit:10;}
	.st13{fill:#F2F2F2;}
	.st14{fill:url(#SVGID_1_);}
	.st15{fill:#E6E6E6;}
	.st16{display:inline;fill:#B3B3B3;}
	.st17{display:inline;fill:#E6E6E6;}
	.st18{display:inline;fill:#E8C25A;}
	.st19{display:inline;fill:#FFDF89;}
	.st20{display:inline;fill:#231F20;}
	.st21{font-family:'BritannicBold';}
	.st22{font-size:334px;}
	.st23{letter-spacing:-99;}
	.st24{fill:#231F20;}
	.st25{fill:#00FF00;}
	.st26{display:inline;fill:#231F20;stroke:#000000;stroke-miterlimit:10;}
</style>
<g id="background_w" class="st0">
</g>
<g id="background_b" class="st0">
	<rect x="-41.4" y="-41.4" class="st1" width="602.4" height="602.4"/>
</g>
<g id="logos" class="st0">
	<g id="Dump">
		<rect x="549.2" class="st1" width="519.7" height="519.7"/>
		<g class="st2">
			<g>
				<path class="st3" d="M643.3,49.2l-43.4,25v50.1l43.4,25l1.8-1.1l41.5-24V74.3L643.3,49.2z M663.3,110.9l-20,11.5l-20-11.5V87.8
					l20-11.6l20,11.6V110.9z"/>
				<path class="st3" d="M643.3,49.2l-43.4,25.1v50.1l43.4,25l1.8-1.1l41.5-24V74.3L643.3,49.2z M623.2,87.8l20-11.6l20,11.6v23.1
					l-20,11.6l-20-11.6V87.8z"/>
				<polygon class="st3" points="629.6,149.4 599.9,149.4 599.9,132.2 				"/>
			</g>
		</g>
		<polygon class="st1" points="677.8,99.3 681.9,103.4 679.1,106.3 675,102.2 670.8,106.3 668,103.4 672.1,99.3 668,95.2 
			670.8,92.3 675,96.5 679.1,92.3 681.9,95.2 		"/>
		<rect x="604.4" y="102.4" class="st1" width="14.3" height="4"/>
		<path class="st4" d="M636.3,92.1v14.3l14.3,0V92.1L636.3,92.1z M646.6,102.4h-6.3v-6.3h6.3V102.4z"/>
		<g class="st2">
			<g>
				<g>
					<path class="st3" d="M975.3,49.2l-43.4,25v50.1l43.4,25l1.8-1.1l41.5-24V74.3L975.3,49.2z M995.3,110.9l-20,11.5l-20-11.5V87.8
						l20-11.6l20,11.6V110.9z"/>
					<path class="st3" d="M975.3,49.2l-43.4,25.1v50.1l43.4,25l1.8-1.1l41.5-24V74.3L975.3,49.2z M955.3,87.8l20-11.6l20,11.6v23.1
						l-20,11.6l-20-11.6V87.8z"/>
					<polygon class="st3" points="961.7,149.4 931.9,149.4 931.9,132.2 					"/>
				</g>
			</g>
			<polygon class="st5" points="1009.9,99.3 1014,103.4 1011.1,106.3 1007,102.2 1002.9,106.3 1000,103.4 1004.1,99.3 1000,95.2 
				1002.9,92.3 1007,96.5 1011.1,92.3 1014,95.2 			"/>
			<rect x="936.4" y="102.4" class="st5" width="14.3" height="4"/>
			<path class="st3" d="M968.3,92.1v14.3l14.3,0V92.1L968.3,92.1z M978.6,102.4h-6.3v-6.3h6.3V102.4z"/>
		</g>
		<g class="st2">
			<g>
				<g>
					<path class="st3" d="M975.3,283.1l-20-11.5L975.3,283.1l20-11.5L975.3,283.1z M931.9,234.9L931.9,234.9l43.4-25L931.9,234.9z"
						/>
					<path class="st3" d="M977.1,309l-1.8,1.1l-43.4-25v0l43.4,25L977.1,309l41.5-24v0L977.1,309z M975.3,236.9l-20,11.6v0
						L975.3,236.9l20,11.6v0L975.3,236.9z"/>
					<path class="st3" d="M975.3,209.9l-43.4,25.1V285l43.4,25l1.8-1.1l41.5-24v-75.2H975.3z M977.6,220.8h10.9v3.1h-10.9V220.8z
						 M995.3,271.5l-20,11.6l-20-11.6v-23.1l20-11.6l20,11.6V271.5z M1002.2,223.9h-10.9V213h10.9V223.9z M1015.6,221.7l-2.2,2.2
						l-3.2-3.2l-3.2,3.2l-2.2-2.2l3.2-3.2l-3.2-3.2l2.2-2.2l3.2,3.2l3.2-3.2l2.2,2.2l-3.2,3.2L1015.6,221.7z"/>
					<polygon class="st3" points="961.7,310.1 931.9,310.1 931.9,292.9 					"/>
				</g>
			</g>
			<path class="st3" d="M994.3,216v4.7h4.8V216H994.3z M994.3,216v4.7h4.8V216H994.3z"/>
		</g>
		<g class="st2">
			<g>
				<g>
					<path class="st3" d="M866.4,286.4h-4.1c-2.3,0-4.1-1.8-4.1-4.1l0,0h8.3c0.6,0,1.2-0.4,1.2-1c0.1-0.7-0.5-1.3-1.2-1.3h-2.9
						c-2.8,0-5.2-2-5.4-4.8c-0.3-3.1,2.2-5.8,5.3-5.8h4.3c2.3,0,4.1,1.8,4.1,4.1v0l-8.3,0c-0.6,0-1.2,0.4-1.2,1
						c-0.1,0.7,0.5,1.3,1.2,1.3h3.1c3.1,0,5.6,2.7,5.3,5.8C871.5,284.4,869.1,286.4,866.4,286.4z"/>
				</g>
				<g>
					<path class="st3" d="M849.1,286.5c-3.8,0-6.8-3.1-6.8-6.8v-3.6c0-3.8,3.1-6.8,6.8-6.8s6.8,3.1,6.8,6.8v3.6
						C855.9,283.5,852.8,286.5,849.1,286.5z M849.1,273.4c-1.5,0-2.7,1.2-2.7,2.7v3.6c0,1.5,1.2,2.7,2.7,2.7s2.7-1.2,2.7-2.7v-3.6
						C851.8,274.6,850.6,273.4,849.1,273.4z"/>
				</g>
			</g>
			<g>
				<path class="st3" d="M756.8,250.7v18.5h18.5v-18.5H756.8z M756.8,250.7v18.5h18.5v-18.5H756.8z M756.8,250.7v18.5h18.5v-18.5
					H756.8z M756.8,250.7v18.5h18.5v-18.5H756.8z M756.8,250.7v18.5h18.5v-18.5H756.8z"/>
				<g>
					<path class="st3" d="M691.8,233.5l-46-26.5l-46,26.5v53.1l46,26.5l2-1.1l44-25.4h147.4v-53.1H691.8z M667,272.2l-21.2,12.2
						l-21.2-12.2v-24.5l21.2-12.2l21.2,12.2V272.2z M739.5,281.2h-42.4v-11.9h42.4V281.2z M787.2,281.2h-42.4v-42.4h42.4V281.2z
						 M833.8,272.2l-8.4,8.4l-12.2-12.2L801,280.6l-8.4-8.4l12.2-12.2l-12.2-12.2l8.4-8.4l12.2,12.2l12.2-12.2l8.4,8.4L821.6,260
						L833.8,272.2z"/>
					<polygon class="st3" points="631.4,313.1 599.9,313.1 599.9,294.8 					"/>
				</g>
			</g>
		</g>
		<g class="st2">
			<path class="st3" d="M794.2,393.3v22.9h22.9v-22.9H794.2z M794.2,393.3v22.9h22.9v-22.9H794.2z M794.2,393.3v22.9h22.9v-22.9
				H794.2z M794.2,393.3v22.9h22.9v-22.9H794.2z M794.2,393.3v22.9h22.9v-22.9H794.2z"/>
			<g>
				<path class="st3" d="M713.7,371.9L656.8,339l-56.9,32.9v65.7l56.9,32.9l2.4-1.4l54.5-31.4h182.5v-65.7H713.7z M683,419.9
					L656.8,435l-26.3-15.2v-30.3l26.3-15.2l26.3,15.2V419.9z M772.8,431h-52.4v-14.8h52.4V431z M831.8,431h-52.4v-52.4h52.4V431z
					 M889.6,419.8l-10.4,10.4L864,415.1l-15.1,15.1l-10.5-10.4l15.1-15.1l-15.1-15.1l10.5-10.5l15.1,15.1l15.1-15.1l10.4,10.5
					l-15.1,15.1L889.6,419.8z"/>
				<polygon class="st3" points="638.9,470.4 599.9,470.4 599.9,447.9 				"/>
			</g>
		</g>
		<g class="st2">
			<g>
				<path class="st3" d="M721.3,110.2l-5.2,0c-2.9,0-5.3-2.4-5.3-5.3v0h10.6c0.8,0,1.5-0.6,1.6-1.3c0.1-0.9-0.6-1.6-1.5-1.6h-3.8
					c-3.5,0-6.6-2.6-6.9-6.1c-0.4-4,2.8-7.4,6.7-7.4h5.4c2.9,0,5.3,2.4,5.3,5.3v0l-10.6,0c-0.8,0-1.5,0.6-1.6,1.3
					c-0.1,0.9,0.6,1.6,1.5,1.6h4c3.9,0,7.1,3.4,6.7,7.4C727.9,107.6,724.8,110.2,721.3,110.2z"/>
			</g>
			<g>
				<path class="st3" d="M699.2,88.2c-4.8,0-8.7,3.9-8.7,8.7v4.6c0,4.8,3.9,8.7,8.7,8.7c4.8,0,8.7-3.9,8.7-8.7V97
					C707.9,92.2,704,88.2,699.2,88.2z M702.6,101.6c0,1.9-1.6,3.5-3.5,3.5c-1.9,0-3.5-1.6-3.5-3.5V97c0-1.9,1.6-3.5,3.5-3.5
					c1.9,0,3.5,1.6,3.5,3.5V101.6z"/>
			</g>
		</g>
		<g class="st2">
			<g>
				<path class="st3" d="M997.6,437.6h-15.9c-8.8,0-15.9-7.1-15.9-15.9l0,0H998c2.4,0,4.5-1.7,4.8-4c0.3-2.7-1.8-5-4.5-5h-11.4
					c-10.6,0-20-7.9-21-18.5c-1.1-12.2,8.4-22.4,20.4-22.4h16.5c8.8,0,15.9,7.1,15.9,15.9l0,0h-32.2c-2.4,0-4.5,1.7-4.8,4
					c-0.3,2.7,1.8,5,4.5,5h12c11.9,0,21.5,10.3,20.4,22.4C1017.6,429.8,1008.3,437.6,997.6,437.6z"/>
			</g>
			<g>
				<path class="st3" d="M930.7,371.3c-14.6,0-26.4,11.8-26.4,26.4v14c0,14.5,11.8,26.4,26.4,26.4c14.5,0,26.4-11.9,26.4-26.4v-14
					C957.2,383.1,945.3,371.3,930.7,371.3z M941.2,411.7c0,5.8-4.7,10.5-10.4,10.5c-5.8,0-10.5-4.8-10.5-10.5v-14
					c0-5.8,4.7-10.5,10.5-10.5c5.8,0,10.4,4.7,10.4,10.5V411.7z"/>
			</g>
		</g>
		<g class="st2">
			<g>
				<g>
					<path class="st3" d="M808,49.2l-43.4,25v50.1l43.4,25l1.8-1.1l41.5-24V74.3L808,49.2z M828.1,110.9l-20,11.5l-20-11.5V87.8
						l20-11.6l20,11.6V110.9z"/>
					<path class="st3" d="M808,49.2l-43.4,25.1v50.1l43.4,25l1.8-1.1l41.5-24V74.3L808,49.2z M788,87.8l20-11.6l20,11.6v23.1
						l-20,11.6l-20-11.6V87.8z"/>
					<polygon class="st3" points="794.4,149.4 764.6,149.4 764.6,132.2 					"/>
				</g>
			</g>
			<g>
				<g>
					<path class="st3" d="M886.1,124.4h-5.2c-2.9,0-5.3-2.4-5.3-5.3l0,0h10.6c0.8,0,1.5-0.6,1.6-1.3c0.1-0.9-0.6-1.6-1.5-1.6h-3.8
						c-3.5,0-6.6-2.6-6.9-6.1c-0.4-4,2.8-7.4,6.7-7.4h5.4c2.9,0,5.3,2.4,5.3,5.3v0l-10.6,0c-0.8,0-1.5,0.6-1.6,1.3
						c-0.1,0.9,0.6,1.6,1.5,1.6h4c3.9,0,7.1,3.4,6.7,7.4C892.7,121.8,889.6,124.4,886.1,124.4z"/>
				</g>
				<g>
					<path class="st3" d="M864,102.4c-4.8,0-8.7,3.9-8.7,8.7v4.6c0,4.8,3.9,8.7,8.7,8.7c4.8,0,8.7-3.9,8.7-8.7v-4.6
						C872.7,106.3,868.8,102.4,864,102.4z M867.4,115.8c0,1.9-1.6,3.5-3.5,3.5c-1.9,0-3.5-1.6-3.5-3.5v-4.6c0-1.9,1.6-3.5,3.5-3.5
						c1.9,0,3.5,1.6,3.5,3.5V115.8z"/>
				</g>
			</g>
		</g>
	</g>
	<g id="_x32_x2">
		<g id="background" class="st2">
			<rect class="st5" width="519.7" height="519.7"/>
			<g id="Layer_36">
				<rect class="st3" width="259.8" height="259.8"/>
				<rect x="259.8" y="259.8" class="st3" width="259.8" height="259.8"/>
			</g>
		</g>
		<rect x="136.5" y="209.3" class="st6" width="246.7" height="51"/>
		<text transform="matrix(1 0 0 1 162.1226 251.3085)" class="st7 st8 st9">P        OS</text>
		<g>
			<path class="st10" d="M356.5,218.2v33.1H165v-33.1H356.5 M357.5,217.2h-1H165h-1v1v33.1v1h1h191.5h1v-1v-33.1V217.2L357.5,217.2z
				"/>
		</g>
		<g class="st2">
			<path class="st5" d="M112.7,193.5v9.9h9.9v-9.9H112.7z M112.7,193.5v9.9h9.9v-9.9H112.7z M78,184.2v28.3l78.6,0v-28.3L78,184.2z
				 M103.5,209.7H80.9v-6.4h22.6V209.7z M128.9,209.7h-22.6v-22.6h22.6V209.7z M153.8,204.9l-4.5,4.5l-6.5-6.5l-6.5,6.5l-4.5-4.5
				l6.5-6.5l-6.5-6.5l4.5-4.5l6.5,6.5l6.5-6.5l4.5,4.5l-6.5,6.5L153.8,204.9z M122.6,193.5h-9.9v9.9h9.9V193.5z"/>
			<g>
				<path class="st5" d="M200.5,212.5h-6.8c-3.8,0-6.8-3.1-6.8-6.8l0,0h13.8c1,0,1.9-0.7,2-1.7c0.1-1.2-0.8-2.1-1.9-2.1h-4.9
					c-4.6,0-8.6-3.4-9-7.9c-0.5-5.2,3.6-9.6,8.7-9.6h7.1c3.8,0,6.8,3.1,6.8,6.8v0l-13.8,0c-1,0-1.9,0.7-2,1.7
					c-0.1,1.2,0.8,2.1,1.9,2.1h5.1c5.1,0,9.2,4.4,8.7,9.6C209,209.1,205,212.5,200.5,212.5z"/>
			</g>
			<g>
				<path class="st5" d="M171.7,212.8c-6.3,0-11.4-5.1-11.4-11.4v-6c0-6.3,5.1-11.4,11.4-11.4c6.3,0,11.4,5.1,11.4,11.4v6
					C183.1,207.7,178,212.8,171.7,212.8z M171.7,190.9c-2.5,0-4.5,2-4.5,4.5v6c0,2.5,2,4.5,4.5,4.5s4.5-2,4.5-4.5v-6
					C176.2,192.9,174.2,190.9,171.7,190.9z"/>
			</g>
			<g>
				<g>
					<path class="st5" d="M64.8,184.2H51.6v28.3h6.8v-9.4h6.4c5.2,0,9.5-4.3,9.5-9.5C74.3,188.5,70.1,184.2,64.8,184.2z M64.8,196.3
						l-6.4,0v-5.3h6.4c1.5,0,2.6,1.2,2.6,2.6C67.5,195.2,66.3,196.3,64.8,196.3z"/>
				</g>
			</g>
		</g>
		<path class="st4" d="M380.3,119.9v20h20v-20H380.3z M380.3,119.9v20h20v-20H380.3z M310.2,101.3v57.3l159.2,0v-57.3L310.2,101.3z
			 M361.7,152.8h-45.7v-12.9h45.7V152.8z M413.2,152.8h-45.7V107h45.7V152.8z M463.5,143.1l-9.1,9.1L441.3,139l-13.2,13.2l-9.1-9.1
			l13.2-13.2L419,116.7l9.1-9.1l13.2,13.2l13.2-13.2l9.1,9.1l-13.2,13.2L463.5,143.1z M400.3,119.9h-20v20h20V119.9z"/>
		<g class="st2">
			<path class="st5" d="M130.6,47.1L78,77.4V138l52.5,30.3l2.2-1.3l50.3-29V77.4L130.6,47.1z M154.8,121.7l-24.2,14l-24.2-14v-28
				l24.2-14l24.2,14V121.7z"/>
			<polygon class="st5" points="114.1,168.4 78,168.4 78,147.6 			"/>
		</g>
		<g class="st2">
			<path class="st3" d="M130.6,298.6l-79,45.6v91.2l79,45.6l3.4-1.9l75.6-43.6v-91.2L130.6,298.6z M167,410.8l-36.4,21l-36.4-21
				v-42.1l36.4-21l36.4,21V410.8z"/>
			<polygon class="st3" points="105.8,480.9 51.6,480.9 51.6,449.6 			"/>
		</g>
		<g class="st2">
			<g>
				<g>
					<g>
						<path class="st5" d="M368.9,424.6l-30.2-17.4L368.9,424.6l30.2-17.4L368.9,424.6z M303.5,352L303.5,352l65.4-37.7L303.5,352z"
							/>
						<path class="st5" d="M371.7,463.6l-2.8,1.6l-65.4-37.8v0l65.4,37.7L371.7,463.6l62.6-36.1v0L371.7,463.6z M368.9,354.9
							l-30.2,17.4v0L368.9,354.9l30.2,17.5v0L368.9,354.9z"/>
						<path class="st5" d="M368.9,314.2L303.5,352v75.5l65.4,37.8l2.8-1.6l62.6-36.1V314.2H368.9z M372.3,330.7h16.4v4.6h-16.4
							V330.7z M399.1,407.2l-30.2,17.4l-30.2-17.4v-34.8l30.2-17.4l30.2,17.4V407.2z M409.4,335.3H393v-16.4h16.4V335.3z M429.6,332
							l-3.3,3.3l-4.8-4.8l-4.8,4.8l-3.3-3.3l4.8-4.8l-4.8-4.8l3.3-3.3l4.8,4.8l4.8-4.8l3.3,3.3l-4.8,4.8L429.6,332z"/>
						<polygon class="st5" points="348.4,465.2 303.5,465.2 303.5,439.3 						"/>
					</g>
				</g>
				<path class="st5" d="M397.6,323.5v7.1h7.2v-7.1H397.6z M397.6,323.5v7.1h7.2v-7.1H397.6z"/>
			</g>
			<g>
				<g>
					<path class="st5" d="M469,338h-5.2c-2.9,0-5.3-2.4-5.3-5.3l0,0h10.6c0.8,0,1.5-0.6,1.6-1.3c0.1-0.9-0.6-1.6-1.5-1.6h-3.8
						c-3.5,0-6.6-2.6-6.9-6.1c-0.4-4,2.8-7.4,6.7-7.4h5.4c2.9,0,5.3,2.4,5.3,5.3l0,0h-10.6c-0.8,0-1.5,0.6-1.6,1.3
						c-0.1,0.9,0.6,1.6,1.5,1.6h4c3.9,0,7.1,3.4,6.7,7.4C475.6,335.4,472.5,338,469,338z"/>
				</g>
				<g>
					<path class="st5" d="M446.9,316c-4.8,0-8.7,3.9-8.7,8.7v4.6c0,4.8,3.9,8.7,8.7,8.7c4.8,0,8.7-3.9,8.7-8.7v-4.6
						C455.7,320,451.7,316,446.9,316z M450.4,329.4c0,1.9-1.6,3.5-3.5,3.5c-1.9,0-3.5-1.6-3.5-3.5v-4.6c0-1.9,1.6-3.5,3.5-3.5
						c1.9,0,3.5,1.6,3.5,3.5V329.4z"/>
				</g>
			</g>
		</g>
		<path class="st11" d="M570.8,167.9L570.8,167.9c-5.1,0-9.3,4.1-9.3,9.3v4.8c0,5.1,4.1,9.3,9.3,9.3l0,0c5.1,0,9.3-4.1,9.3-9.3v-4.8
			C580.1,172,575.9,167.9,570.8,167.9z"/>
		<polyline class="st12" points="580.1,208.1 561.5,208.1 561.5,219.6 580.1,219.6 580.1,231.1 561.5,231.1 		"/>
		<line class="st11" x1="561.5" y1="278.6" x2="561.5" y2="245.5"/>
		<path class="st11" d="M573,262.1l-11.5,0V248H573c3.9,0,7.1,3.2,7.1,7.1v0C580.1,258.9,576.9,262.1,573,262.1z"/>
	</g>
	<g id="Plexos_Imagotype">
		<g class="st2">
			<g>
				<path class="st13" d="M259.8,98.9l-103,59.5v119l103,59.5l4.4-2.5l98.6-56.9v-119L259.8,98.9z M307.4,245.3l-47.5,27.4
					l-47.5-27.4v-54.9l47.5-27.4l47.5,27.4V245.3z"/>
				<polygon class="st13" points="227.5,336.8 156.8,336.8 156.8,296 				"/>
			</g>
			<g>
				<g>
					<path class="st13" d="M397.9,420.3h-13.8c-7.6,0-13.8-6.2-13.8-13.8l0,0h27.9c2,0,3.9-1.5,4.1-3.5c0.2-2.3-1.6-4.3-3.9-4.3
						h-9.9c-9.2,0-17.3-6.8-18.2-16c-1-10.5,7.3-19.5,17.7-19.5h14.3c7.6,0,13.8,6.2,13.8,13.8l0,0h-27.9c-2,0-3.9,1.5-4.1,3.5
						c-0.2,2.3,1.6,4.3,3.9,4.3h10.4c10.3,0,18.7,8.9,17.7,19.5C415.3,413.5,407.2,420.3,397.9,420.3z"/>
				</g>
				<g>
					<path class="st13" d="M339.9,420.8c-12.6,0-22.9-10.3-22.9-22.9v-12.2c0-12.6,10.3-22.9,22.9-22.9s22.9,10.3,22.9,22.9v12.2
						C362.8,410.5,352.5,420.8,339.9,420.8z M339.9,376.6c-5,0-9.1,4.1-9.1,9.1v12.2c0,5,4.1,9.1,9.1,9.1s9.1-4.1,9.1-9.1v-12.2
						C349,380.7,344.9,376.6,339.9,376.6z"/>
				</g>
				<g>
					<g>
						<path class="st13" d="M309.4,375.7c0,6.2-2.5,11.9-6.5,16c4.1,4.1,6.5,9.8,6.5,16v12.6h-13.8v-12.6c0-5-4.1-9.1-9.1-9.1h0
							c-5,0-9.1,4.1-9.1,9.1v12.6h-13.8v-12.6c0-6.2,2.5-11.9,6.5-16c-4-4.1-6.5-9.8-6.5-16l0-12.6h13.8l0,12.6c0,5,4.1,9.1,9.1,9.1
							h0c5,0,9.1-4.1,9.1-9.1l0-12.6h13.8L309.4,375.7z"/>
					</g>
				</g>
				<g>
					<g>
						<path class="st13" d="M130.2,363.2h-26.7v57.2h13.8v-18.9h12.9c10.5,0,19.1-8.6,19.1-19.1
							C149.3,371.8,140.7,363.2,130.2,363.2z M130.2,387.6l-12.9,0V377h12.9c2.9,0,5.3,2.4,5.3,5.3
							C135.5,385.3,133.1,387.6,130.2,387.6z"/>
					</g>
				</g>
				<polygon class="st13" points="202.8,406.4 202.8,420.2 156.9,420.2 156.9,363 170.7,363 170.7,406.4 				"/>
				<g>
					<g>
						<path class="st13" d="M256,406.4c0,3.8-1.5,7.3-4.1,9.8c-2.5,2.5-6,4.1-9.8,4.1h-18.1c-3.8,0-7.3-1.5-9.8-4.1
							c-2.5-2.5-4.1-6-4.1-9.8H256z"/>
						<path class="st13" d="M256,376.9L256,376.9l-45.7,0v0c0-7.6,6.2-13.8,13.8-13.8h18.1C249.8,363,256,369.2,256,376.9z"/>
						<path class="st13" d="M254.2,392.2c-2.4,4.1-6.9,6.9-12,6.9h-18.1c-5.1,0-9.6-2.8-12-6.9c2.4-4.1,6.9-6.9,12-6.9h18.1
							C247.3,385.3,251.8,388,254.2,392.2z"/>
					</g>
					<rect x="210.3" y="363" class="st13" width="19.4" height="13.8"/>
					<rect x="210.3" y="406.4" class="st13" width="19.4" height="13.8"/>
					<rect x="210.3" y="385.3" class="st13" width="19.4" height="13.8"/>
				</g>
			</g>
		</g>
	</g>
	<g id="Plexos_Abstract_Pictogram" class="st2">
		<g>
			<g>
				<path class="st13" d="M259.9,79l-128.4,74.1v148.2l128.4,74.1l5.5-3.2l122.9-70.9V153.1L259.9,79z M319.1,261.4l-59.2,34.2
					l-59.2-34.2V193l59.2-34.2l59.2,34.2V261.4z"/>
				<polygon class="st13" points="219.6,375.4 131.5,375.4 131.5,324.6 				"/>
			</g>
			<g>
				<g>
					<path class="st13" d="M373.1,440.3l-11.3,0c-6.3,0-11.4-5.1-11.4-11.4l0,0h22.9c1.7,0,3.2-1.2,3.4-2.9c0.2-1.9-1.3-3.5-3.2-3.5
						h-8.1c-7.6,0-14.2-5.6-14.9-13.2c-0.8-8.7,6-16,14.5-16h11.7c6.3,0,11.4,5.1,11.4,11.4l0,0h-22.9c-1.7,0-3.2,1.2-3.4,2.9
						c-0.2,1.9,1.3,3.5,3.2,3.5h8.5c8.5,0,15.3,7.3,14.5,16C387.4,434.7,380.7,440.3,373.1,440.3z"/>
				</g>
				<g>
					<path class="st13" d="M325.5,440.6c-10.4,0-18.8-8.4-18.8-18.8v-10c0-10.4,8.4-18.8,18.8-18.8s18.8,8.4,18.8,18.8v10
						C344.3,432.2,335.9,440.6,325.5,440.6z M325.5,404.4c-4.1,0-7.5,3.4-7.5,7.5v10c0,4.1,3.4,7.5,7.5,7.5s7.5-3.4,7.5-7.5v-10
						C333,407.7,329.6,404.4,325.5,404.4z"/>
				</g>
				<g>
					<g>
						<path class="st13" d="M300.5,403.7c0,5.1-2,9.7-5.4,13.1c3.3,3.4,5.4,8,5.4,13.2v10.3h-11.4V430c0-4.1-3.4-7.5-7.5-7.5h0
							c-4.1,0-7.5,3.4-7.5,7.5v10.3h-11.4V430c0-5.1,2-9.8,5.4-13.1c-3.3-3.4-5.4-8-5.4-13.2l0-10.3h11.4l0,10.3
							c0,4.1,3.4,7.5,7.5,7.5h0c4.1,0,7.5-3.4,7.5-7.5l0-10.3h11.4L300.5,403.7z"/>
					</g>
				</g>
				<g>
					<g>
						<path class="st13" d="M153.4,393.4h-21.9v46.9h11.4v-15.5h10.6c8.7,0,15.7-7.1,15.7-15.7C169.1,400.4,162,393.4,153.4,393.4z
							 M153.4,413.4l-10.6,0v-8.7h10.6c2.4,0,4.4,2,4.4,4.4C157.7,411.5,155.8,413.4,153.4,413.4z"/>
					</g>
				</g>
				<polygon class="st13" points="213,428.8 213,440.2 175.3,440.2 175.3,393.2 186.7,393.2 186.7,428.8 				"/>
				<g>
					<g>
						<path class="st13" d="M256.7,428.8c0,3.1-1.3,6-3.3,8c-2.1,2.1-4.9,3.3-8,3.3h-14.8c-3.1,0-6-1.3-8-3.3
							c-2.1-2.1-3.3-4.9-3.3-8H256.7z"/>
						<path class="st13" d="M256.7,404.6L256.7,404.6l-37.5,0v0c0-6.3,5.1-11.4,11.4-11.4h14.8C251.6,393.2,256.7,398.3,256.7,404.6
							z"/>
						<path class="st13" d="M255.2,417.2c-2,3.4-5.6,5.7-9.8,5.7h-14.9c-4.2,0-7.9-2.3-9.8-5.7c2-3.4,5.6-5.7,9.8-5.7h14.9
							C249.5,411.5,253.2,413.8,255.2,417.2z"/>
					</g>
					<rect x="219.2" y="393.3" class="st13" width="15.9" height="11.3"/>
					<rect x="219.2" y="428.8" class="st13" width="15.9" height="11.3"/>
					<rect x="219.2" y="411.5" class="st13" width="15.9" height="11.3"/>
				</g>
			</g>
		</g>
	</g>
	<g id="Plexos_Pattern">
		<path class="st4" d="M237,235.5v48.6h48.6v-48.6H237z M237,235.5v48.6h48.6v-48.6H237z M66.2,190.1v139.5l387.3,0V190.1
			L66.2,190.1z M191.6,315.5H80.3v-31.4h111.3V315.5z M316.9,315.5H205.6V204.2h111.3V315.5z M439.4,291.8L417.2,314l-32-32l-32,32
			L331,291.8l32-32l-32-32l22.2-22.2l32,32l32-32l22.2,22.2l-32,32L439.4,291.8z M285.6,235.5H237v48.6h48.6V235.5z"/>
	</g>
	<g id="Plexos_Isotype">
		<g class="st2">
			<path class="st5" d="M259.8,0l-225,129.9v259.8l225,129.9l9.6-5.5l215.4-124.4V129.9L259.8,0z M363.6,319.8l-103.8,59.9
				L156,319.8V199.9L259.8,140l103.8,59.9V319.8z"/>
			<polygon class="st5" points="162.3,519.7 34.8,519.7 34.8,445.5 			"/>
		</g>
	</g>
</g>
<g id="icons">
	<g id="metafile" class="st0">
		<g class="st2">
			<linearGradient id="SVGID_1_" gradientUnits="userSpaceOnUse" x1="70.3546" y1="150.5224" x2="448.0462" y2="368.4015">
				<stop  offset="0" style="stop-color:#3C4759"/>
				<stop  offset="1" style="stop-color:#5D6C87"/>
			</linearGradient>
			<polygon class="st14" points="41.8,385.7 41.8,134 259.8,8.1 477.8,134 477.8,385.7 259.8,511.6 			"/>
			<path class="st15" d="M259.8,16.2l211,121.8v243.7l-211,121.8l-211-121.8V138L259.8,16.2 M259.8,0l-225,129.9v259.8l225,129.9
				l225-129.9V129.9L259.8,0L259.8,0z"/>
		</g>
		<polygon class="st16" points="129.7,334.9 129.7,184.7 259.8,259.8 259.8,410.1 		"/>
		<polygon class="st10" points="259.8,259.8 389.9,184.7 389.9,334.9 259.8,410.1 		"/>
		<polygon class="st17" points="129.7,184.7 259.8,109.6 389.9,184.7 259.8,259.8 		"/>
	</g>
	<g id="folder" class="st0">
		<path class="st18" d="M432.5,143.2v301.7c0,14-9.3,25.9-22.1,29.7c-2.8,0.8-5.7,1.3-8.8,1.3H30.9c-5.5,0-10.7-1.5-15.2-4
			C6.3,466.5,0,456.4,0,444.8v-370c0-17.1,13.8-30.9,30.9-30.9h89.2c8.2,0,16.1,3.3,21.9,9.1l50.3,50.3c5.8,5.8,13.7,9.1,21.9,9.1
			h187.3C418.7,112.3,432.5,126.1,432.5,143.2z"/>
		<polygon class="st4" points="416.4,435.8 465.7,145.7 70.2,145.7 21.6,435.8 		"/>
		<path class="st19" d="M32.9,475.8l91.3-275.6c4.1-12.3,15.6-20.6,28.6-20.6h341.8c17.1,0,29.2,16.8,23.9,33l-81.5,246
			c-3.4,10.3-13,17.2-23.9,17.2H32.9z"/>
	</g>
</g>
<g id="misc" class="st0">
	<g id="ship3">
		<polygon class="st4" points="374,18.7 374,53.6 53.6,53.6 53.6,374 18.7,374 18.7,18.7 		"/>
		<polygon class="st4" points="437.5,82.2 437.5,117.1 117.1,117.1 117.1,437.5 82.2,437.5 82.2,82.2 		"/>
		<rect x="145.7" y="145.7" class="st4" width="355.3" height="355.3"/>
	</g>
	<g id="ship2">
		<polygon class="st4" points="374,18.7 374,53.6 53.6,53.6 53.6,374 18.7,374 18.7,18.7 		"/>
		<rect x="82.2" y="82.2" class="st4" width="355.3" height="355.3"/>
	</g>
	<g id="ship1">
		<rect x="82.2" y="82.2" class="st4" width="355.3" height="355.3"/>
	</g>
</g>
<g id="dropMenu">
	<g id="Function" class="st0">
		<polygon class="st20" points="461.8,156.1 461.8,519.7 57.9,519.7 57.9,0 305.7,0 		"/>
		<rect x="0" y="46.2" class="st6" width="519.7" height="427.3"/>
		<text transform="matrix(1 0 0 1 124.9722 372.9278)" class="st2"><tspan x="0" y="0" class="st3 st21 st22">(</tspan><tspan x="124.4" y="0" class="st3 st21 st22 st23">                     </tspan><tspan x="145.4" y="0" class="st3 st21 st22">)</tspan></text>
	</g>
	<g id="Array" class="st0">
		<polygon class="st20" points="461.8,156.1 461.8,519.7 57.9,519.7 57.9,0 305.7,0 		"/>
		<rect x="0" y="46.2" class="st6" width="519.7" height="427.3"/>
		<text transform="matrix(1 0 0 1 90.8682 372.9078)" class="st4 st21 st22">[]</text>
	</g>
	<g id="Object" class="st0">
		<polygon class="st20" points="461.8,156.1 461.8,519.7 57.9,519.7 57.9,0 305.7,0 		"/>
		<rect x="0" y="46.2" class="st6" width="519.7" height="427.3"/>
		<text transform="matrix(1 0 0 1 104.8936 372.9078)" class="st4 st21 st22">{}</text>
	</g>
	<g id="Metafile" class="st0">
		<path class="st20" d="M259.8,0l-225,129.9v259.8l225,129.9l225-129.9V129.9L259.8,0z M244.4,399.7l-116.1-67.1V200.5l116.1,67
			V399.7z M140.9,173.4l118.9-68.7l118.9,68.7l-118.9,70.4L140.9,173.4z M391.3,332.6l-116.1,67.1V267.6l116.1-67V332.6z"/>
	</g>
	<g id="Directory2" class="st0">
		<rect y="72.2" class="st20" width="519.7" height="93.6"/>
		<polygon class="st20" points="0,23.4 178.5,23.4 228.3,121 0,121 		"/>
		<rect y="196.5" class="st20" width="519.7" height="299.7"/>
	</g>
	<g id="Directory" class="st0">
		<polygon class="st20" points="0,487.1 0,27.6 133,27.6 201.6,96.2 447.5,96 447.5,151.9 69.6,152.1 		"/>
		<polyline class="st20" points="37.6,489.6 97.2,192.3 519.7,192.3 464.8,489.6 		"/>
	</g>
	<g id="About" class="st0">
		<path class="st20" d="M259.6,0.2C116.2,0.2,0,116.4,0,259.8s116.2,259.6,259.6,259.6s259.6-116.2,259.6-259.6l0,0
			C519.2,116.4,403,0.2,259.6,0.2z M302.9,400h-86.6V246h86.6V400z M302.9,210h-86.6v-86.6h86.6V210z"/>
	</g>
	<g id="Settings2" class="st0">
		<g class="st2">
			<path class="st24" d="M259.8,146.4c30.3,0,58.8,11.8,80.2,33.2c21.4,21.4,33.2,49.9,33.2,80.2S361.4,318.6,340,340
				c-21.4,21.4-49.9,33.2-80.2,33.2S201,361.4,179.6,340c-21.4-21.4-33.2-49.9-33.2-80.2s11.8-58.8,33.2-80.2
				C201,158.2,229.5,146.4,259.8,146.4 M259.8,30.4c-126.7,0-229.4,102.7-229.4,229.4s102.7,229.4,229.4,229.4
				s229.4-102.7,229.4-229.4S386.5,30.4,259.8,30.4L259.8,30.4z"/>
		</g>
		<g class="st2">
			<polyline class="st24" points="210.3,0 205.3,41.9 315.1,41.9 310.1,0 			"/>
			<polyline class="st24" points="310.1,519.7 315.1,477.7 205.3,477.7 210.3,519.7 			"/>
		</g>
		<g class="st2">
			<polyline class="st24" points="408.3,36.5 375.1,62.6 452.7,140.2 478.8,107 			"/>
			<polyline class="st24" points="111.4,474.5 144.6,448.4 66.9,370.7 40.8,403.9 			"/>
		</g>
		<g class="st2">
			<polyline class="st24" points="520,205.6 478.1,200.6 478.1,310.4 520,305.4 			"/>
			<polyline class="st24" points="0.4,305.4 42.3,310.4 42.3,200.6 0.4,205.6 			"/>
		</g>
		<g class="st2">
			<polyline class="st24" points="479.2,408.3 453.1,375.1 375.5,452.7 408.7,478.8 			"/>
			<polyline class="st24" points="41.2,111.4 67.3,144.6 145,66.9 111.8,40.8 			"/>
		</g>
	</g>
	<g id="Settings" class="st0">
		<g class="st2">
			<path class="st24" d="M259.8,149.8c29.4,0,57,11.4,77.8,32.2c20.8,20.8,32.2,48.4,32.2,77.8s-11.4,57-32.2,77.8
				c-20.8,20.8-48.4,32.2-77.8,32.2s-57-11.4-77.8-32.2c-20.8-20.8-32.2-48.4-32.2-77.8s11.4-57,32.2-77.8
				C202.8,161.3,230.4,149.8,259.8,149.8 M259.8,25.8c-129.2,0-234,104.8-234,234s104.8,234,234,234s234-104.8,234-234
				S389.1,25.8,259.8,25.8L259.8,25.8z"/>
		</g>
		<g class="st2">
			<polyline class="st24" points="205.3,0 157.9,90 361.7,90 314,0 			"/>
			<polyline class="st24" points="314.3,519.7 361.7,429.6 157.9,429.6 205.7,519.7 			"/>
		</g>
		<g class="st2">
			<polyline class="st24" points="519.7,205.3 429.7,157.9 429.7,361.7 519.7,314 			"/>
			<polyline class="st24" points="0,314.3 90,361.7 90,157.9 0,205.7 			"/>
		</g>
		<g class="st2">
			<polyline class="st24" points="405,37.6 307.8,67.7 452,211.8 481.8,114.4 			"/>
			<polyline class="st24" points="114.6,482.1 211.8,452 67.7,307.8 37.8,405.3 			"/>
		</g>
		<g class="st2">
			<polyline class="st24" points="482.1,405 452,307.8 307.9,452 405.3,481.8 			"/>
			<polyline class="st24" points="37.6,114.6 67.7,211.8 211.8,67.7 114.4,37.8 			"/>
		</g>
	</g>
	<g id="New2" class="st0">
		<g class="st2">
			<path class="st24" d="M305.7,0H57.9v519.7h403.9V156.1L305.7,0z M369.1,326.1h-76.9V403h-64.8v-76.9h-76.9v-64.8h76.9v-76.9h64.8
				v76.9h76.9V326.1z"/>
		</g>
	</g>
	<g id="New" class="st0">
		<rect x="198.8" y="53.9" class="st20" width="122" height="411.8"/>
		
			<rect x="198.8" y="53.9" transform="matrix(-1.836970e-16 1 -1 -1.836970e-16 519.65 -3.814698e-06)" class="st20" width="122" height="411.8"/>
	</g>
	<g id="Refresh" class="st0">
		<path class="st20" d="M452.3,313.7c-9.1,32.7-26.5,62.7-51.2,87.4c-37.7,37.7-87.9,58.5-141.3,58.5c-53.4,0-103.6-20.8-141.3-58.5
			C80.8,363.4,60,313.2,60,259.8c0-53.4,20.8-103.6,58.5-141.3C156.3,80.8,206.5,60,259.8,60c53.4,0,103.5,20.8,141.3,58.5
			c22.5,22.5,38.9,49.4,48.6,78.7h62.4C484,84,381.7,0,259.8,0C116.3,0,0,116.3,0,259.8c0,143.5,116.3,259.8,259.8,259.8
			c125,0,229.4-88.3,254.2-205.9H452.3z"/>
		<polygon class="st20" points="519.5,31.4 343.7,207.2 519.7,207.4 		"/>
	</g>
	<g id="Layer_43" class="st0">
	</g>
	<g id="Auto_Margin">
		<rect x="0" y="0" class="st24" width="402.8" height="402.8"/>
		<polygon class="st25" points="443.4,433.9 443.4,443.4 433.9,443.4 		"/>
		<polygon class="st24" points="75.5,443.4 0,518.9 0,443.4 		"/>
		<polygon class="st24" points="518.9,0 443.4,75.5 443.4,0 		"/>
		<polygon class="st24" points="226.9,443.4 150.7,519.7 54.9,519.7 131.1,443.4 		"/>
		<polygon class="st24" points="519.7,54.9 519.7,150.7 443.4,226.9 443.4,131.1 		"/>
		<polygon class="st24" points="378.3,443.4 302.1,519.7 206.3,519.7 282.5,443.4 		"/>
		<polygon class="st24" points="519.7,206.3 519.7,302.1 443.4,378.3 443.4,282.5 		"/>
		<polygon class="st24" points="519.7,357.7 519.7,453.5 453.5,519.7 357.7,519.7 		"/>
		<polygon class="st24" points="75.5,443.4 0,518.9 0,443.4 		"/>
		<polygon class="st24" points="226.9,443.4 150.7,519.7 54.9,519.7 131.1,443.4 		"/>
		<polygon class="st24" points="378.3,443.4 302.1,519.7 206.3,519.7 282.5,443.4 		"/>
		<polygon class="st24" points="518.9,0 443.4,75.5 443.4,0 		"/>
		<polygon class="st24" points="519.7,54.9 519.7,150.7 443.4,226.9 443.4,131.1 		"/>
		<polygon class="st24" points="519.7,206.3 519.7,302.1 443.4,378.3 443.4,282.5 		"/>
		<polygon class="st24" points="519.7,357.7 519.7,453.5 453.5,519.7 357.7,519.7 		"/>
	</g>
	<g id="Auto_Grid" class="st0">
		<rect class="st20" width="181.1" height="181.1"/>
		<rect x="221.7" class="st20" width="181.1" height="181.1"/>
		<rect x="221.7" y="221.7" class="st20" width="181.1" height="181.1"/>
		<polygon class="st20" points="444.4,126.2 519.6,201.5 444.4,276.7 		"/>
		<polygon class="st20" points="277.6,443.4 202.3,518.7 127.1,443.4 		"/>
		<rect x="0" y="221.7" class="st20" width="181.1" height="181.1"/>
	</g>
	<g id="Grid" class="st0">
		<rect x="87.8" class="st20" width="67.8" height="519.7"/>
		<rect x="364.1" class="st20" width="67.8" height="519.7"/>
		<rect x="0" y="364.1" class="st20" width="519.7" height="67.8"/>
		<rect x="0" y="87.8" class="st20" width="519.7" height="67.8"/>
	</g>
	<g id="View" class="st0">
		<rect x="174.5" class="st26" width="345.1" height="345.1"/>
		<rect class="st26" width="100.4" height="345.1"/>
		
			<rect x="296.9" y="296.9" transform="matrix(-1.836970e-16 1 -1 -1.836970e-16 816.5618 122.3824)" class="st26" width="100.4" height="345.1"/>
		
			<rect y="419.3" transform="matrix(-1.836970e-16 1 -1 -1.836970e-16 519.65 419.2941)" class="st26" width="100.4" height="100.4"/>
	</g>
	<g id="Properties" class="st0">
		<path class="st20" d="M519.7,156.1v363.5H308.9c52.6-41.7,83.2-105.1,83.2-172.2c0-121.4-98.4-219.9-219.9-219.9
			c-19.1,0-38,2.4-56.5,7.3V0h247.8L519.7,156.1z"/>
		<path class="st20" d="M172.2,175.2C77.1,175.2,0,252.3,0,347.4s77.1,172.2,172.2,172.2s172.2-77.1,172.2-172.2l0,0
			C344.5,252.3,267.4,175.2,172.2,175.2z M201,440.4h-57.5V338.2H201L201,440.4z M201,314.4h-57.5v-57.5H201L201,314.4z"/>
	</g>
	<g id="Rename" class="st0">
		<rect x="225.9" class="st20" width="67.8" height="519.7"/>
		<path class="st20" d="M153.6,451.9v67.8h212.5v-67.8H153.6z"/>
		<path class="st20" d="M153.6,0v67.8h212.5V0H153.6z"/>
		<rect x="329.9" y="150.5" class="st20" width="189.7" height="218.7"/>
		<rect x="0" y="150.5" class="st20" width="189.7" height="218.7"/>
	</g>
	<g id="Delete" class="st0">
		<path class="st20" d="M57.9,109.1v410.5h403.9V109.1H57.9z M172.1,458.6h-53.8V170.2h53.8V458.6z M286.7,458.6h-53.8V170.2h53.8
			V458.6z M401.4,458.6h-53.8V170.2h53.8V458.6z"/>
		<rect class="st20" width="519.7" height="67.8"/>
	</g>
	<g id="Paste" class="st0">
		<path class="st20" d="M381.3,36.8v107.3H138.4V36.8H57.9v482.8h403.9V36.8H381.3z M381.3,420H138.4v-45.3h242.9V420z M381.3,344.5
			H138.4v-45.3h242.9V344.5z M381.3,268.9H138.4v-45.3h242.9V268.9z"/>
		<rect x="179.3" y="0" class="st20" width="161.1" height="103.3"/>
	</g>
	<g id="Copy" class="st0">
		<g class="st2">
			<polygon class="st24" points="473.4,166.4 473.4,420.8 401.8,420.8 401.8,213.1 264.4,75.7 146.3,75.7 146.3,0 306.9,0 			"/>
			<path class="st24" d="M246.9,98.8H46.3v420.8h327.1V225.3L246.9,98.8z M308.2,439H111.5v-36.7h196.7V439z M308.2,377.8H111.5
				v-36.7h196.7V377.8z M308.2,316.6H111.5v-36.7h196.7V316.6z"/>
		</g>
	</g>
	<g id="Cut" class="st0">
		<path class="st20" d="M442.1,53.1L429.5,0l-154,240.1l55.1,77.1c10-16.5,17.8-29.3,24.9-40.9c14.3-23.4,37.9-66.7,56.1-106.7
			C445.8,94.2,445.4,67,442.1,53.1z M467,424.1c-3.4-49.2-46.1-86.3-95.3-82.9c0,0,0,0,0,0l-0.9,0.1c-28.7,3.5-43.6,4.7-54.5-0.3
			c-11.2-5.4-56.4-76.6-56.4-76.6l0,0L90.2,0L77.5,53.1c-3.3,13.9-3.7,41.1,30.6,116.5c18.2,40,41.8,83.4,56.1,106.7
			c12.6,20.7,28,46,39.2,64.6c-11,5-25.9,3.8-54.5,0.3l-0.9-0.1c-49.2-3.4-91.9,33.7-95.3,82.9s33.7,91.9,82.9,95.3
			c21.5,1.5,42.9-4.9,60.1-17.9c19.7-15,30.5-42.4,40.8-69c5.2-13.3,10.1-25.8,15.4-34.5c1.2-2,3.1-3.6,5.3-4.5
			c0.8-0.3,1.7-0.5,2.6-0.5c0.9,0,1.8,0.2,2.7,0.5c2.2,0.9,4.1,2.5,5.3,4.5c5.3,8.7,10.2,21.2,15.4,34.5c10.4,26.6,21.1,54,40.9,69
			c15.5,11.7,34.4,18.1,53.9,18.1c2.1,0,4.2-0.1,6.3-0.2c46.8-3.2,83.1-42.1,83.1-89C467.2,428.3,467.2,426.2,467,424.1L467,424.1z
			 M161.9,467.3c-20.5,11.2-46.2,3.6-57.3-16.9s-3.6-46.2,16.9-57.3c20.5-11.2,46.1-3.6,57.3,16.9
			C190,430.5,182.4,456.1,161.9,467.3L161.9,467.3z M415.1,450.4c-11.2,20.5-36.8,28-57.3,16.9c-20.5-11.2-28-36.8-16.9-57.3
			c11.2-20.5,36.8-28,57.3-16.9C418.7,404.3,426.2,429.9,415.1,450.4L415.1,450.4z"/>
	</g>
	<g id="NewTab" class="st0">
		<g class="st2">
			<path class="st24" d="M451.9,309.8v142.1H67.8V67.8h142.1L142.1,0H0v519.6h519.6V377.6L451.9,309.8z"/>
			<polygon class="st24" points="519.6,0 519.6,259.8 259.8,0 			"/>
			
				<rect x="250.6" y="126.5" transform="matrix(0.7071 -0.7071 0.7071 0.7071 -32.7785 290.8292)" class="st24" width="168" height="117"/>
		</g>
	</g>
	<g id="FullScreen" class="st0">
		<path class="st20" d="M0,0v519.6h519.6V0H0z M451.9,451.9H67.8V177.3h384.1V451.9z"/>
	</g>
	<g id="Open" class="st0">
		<polygon class="st20" points="137.8,0 519.7,0 519.7,381.8 		"/>
		<polygon class="st20" points="381.8,519.7 0,519.7 0,137.8 		"/>
	</g>
</g>
</svg>
