<svg id="settings" xmlns="http://www.w3.org/2000/svg" width="519.65" height="519.65" viewBox="0 0 519.65 519.65"><defs><style>.cls-1{fill:#231f20;}</style></defs><g id="Settings"><path class="cls-1" d="M259.83,149.83A110,110,0,1,1,182,182a109.3,109.3,0,0,1,77.79-32.21m0-124c-129.24,0-234,104.76-234,234s104.76,234,234,234,234-104.77,234-234-104.77-234-234-234Z" transform="translate(-0.01)"/><polyline class="cls-1" points="205.31 0 157.92 90 361.73 90 313.95 0"/><polyline class="cls-1" points="314.34 519.65 361.73 429.64 157.92 429.64 205.7 519.65"/><polyline class="cls-1" points="519.65 205.31 429.64 157.92 429.64 361.73 519.65 313.95"/><polyline class="cls-1" points="0 314.34 90 361.73 90 157.92 0 205.7"/><polyline class="cls-1" points="405 37.55 307.84 67.69 451.96 211.8 481.82 114.38"/><polyline class="cls-1" points="114.64 482.1 211.79 451.96 67.68 307.85 37.82 405.27"/><polyline class="cls-1" points="482.1 405 451.96 307.85 307.85 451.96 405.27 481.82"/><polyline class="cls-1" points="37.55 114.65 67.69 211.8 211.8 67.69 114.38 37.83"/></g></svg>