<svg id="icons" xmlns="http://www.w3.org/2000/svg" width="519.65" height="431.87" viewBox="0 0 519.65 431.87"><defs><style>.cls-1{fill:#e8c25a;}.cls-2{fill:#fff;}.cls-3{fill:#ffdf89;}</style></defs><g id="folder"><path class="cls-1" d="M432.47,143.17V444.82a30.91,30.91,0,0,1-30.94,30.94H30.94A30.92,30.92,0,0,1,0,444.82v-370A30.94,30.94,0,0,1,30.94,43.89h89.24A30.94,30.94,0,0,1,142.06,53l50.3,50.3a31,31,0,0,0,21.92,9.08H401.63A30.84,30.84,0,0,1,432.47,143.17Z" transform="translate(0 -43.89)"/><polygon class="cls-2" points="416.43 391.88 465.68 101.82 70.18 101.82 21.58 391.88 416.43 391.88"/><path class="cls-3" d="M32.88,475.76l91.31-275.63a30.06,30.06,0,0,1,28.55-20.62H494.5a25.14,25.14,0,0,1,23.86,33l-81.49,246A25.13,25.13,0,0,1,413,475.76Z" transform="translate(0 -43.89)"/></g></svg>