<svg id="icons" xmlns="http://www.w3.org/2000/svg" xmlns:xlink="http://www.w3.org/1999/xlink" width="450.03" height="519.65" viewBox="0 0 450.03 519.65"><defs><style>.cls-1{fill:url(#linear-gradient);}.cls-2{fill:#e6e6e6;}.cls-3{fill:#b3b3b3;}.cls-4{fill:gray;}</style><linearGradient id="linear-gradient" x1="35.54" y1="150.52" x2="413.24" y2="368.4" gradientUnits="userSpaceOnUse"><stop offset="0" stop-color="#3c4759"/><stop offset="1" stop-color="#5d6c87"/></linearGradient></defs><g id="metafile"><polygon class="cls-1" points="7 385.7 7 133.95 225.02 8.08 443.03 133.95 443.03 385.7 225.02 511.57 7 385.7"/><path class="cls-2" d="M259.83,16.17,470.84,138V381.66l-211,121.82-211-121.82V138l211-121.82m0-16.17-225,129.91V389.74l225,129.91,225-129.91V129.91L259.83,0Z" transform="translate(-34.81)"/><polygon class="cls-3" points="94.9 334.95 94.9 184.7 225.01 259.82 225.02 410.07 94.9 334.95"/><polygon class="cls-4" points="225.01 259.82 355.13 184.7 355.13 334.95 225.02 410.07 225.01 259.82"/><polygon class="cls-2" points="94.9 184.7 225.02 109.58 355.13 184.7 225.01 259.82 94.9 184.7"/></g></svg>