<svg id="Isotypes" xmlns="http://www.w3.org/2000/svg" xmlns:xlink="http://www.w3.org/1999/xlink" width="448.96" height="518.41" viewBox="0 0 448.96 518.41"><defs><style>.cls-1{fill:#d43952;}.cls-2{fill:url(#linear-gradient);}.cls-3{fill:#8248ad;}.cls-4{fill:url(#linear-gradient-2);}.cls-5{fill:#29abe2;}.cls-6{fill:url(#linear-gradient-3);}.cls-7{fill:#f7931e;}.cls-8{fill:url(#linear-gradient-4);}.cls-9{fill:#ffd91f;}.cls-10{fill:url(#linear-gradient-5);}.cls-11{fill:#40d956;}.cls-12{fill:url(#linear-gradient-6);}</style><linearGradient id="linear-gradient" x1="339.1" y1="167.42" x2="398.37" y2="67.32" gradientTransform="translate(238.72 -248.49) rotate(60)" gradientUnits="userSpaceOnUse"><stop offset="0.3" stop-color="#d43952"/><stop offset="0.78" stop-color="#a11542"/><stop offset="0.87" stop-color="#960e3f"/></linearGradient><linearGradient id="linear-gradient-2" x1="131.02" y1="160.44" x2="190.3" y2="60.34" gradientUnits="userSpaceOnUse"><stop offset="0.3" stop-color="#8248ad"/><stop offset="0.77" stop-color="#57297a"/><stop offset="0.87" stop-color="#4d226e"/></linearGradient><linearGradient id="linear-gradient-3" x1="962.04" y1="63.59" x2="1021.31" y2="-36.51" gradientTransform="matrix(0.5, -0.87, 0.87, 0.5, -443.87, 1092.12)" gradientUnits="userSpaceOnUse"><stop offset="0.3" stop-color="#29abe2"/><stop offset="0.72" stop-color="#0b78b8"/><stop offset="0.87" stop-color="#0064a8"/></linearGradient><linearGradient id="linear-gradient-4" x1="962.04" y1="63.59" x2="1021.31" y2="-36.51" gradientTransform="matrix(-0.5, 0.87, -0.87, -0.5, 892.83, -573.7)" gradientUnits="userSpaceOnUse"><stop offset="0.3" stop-color="#f7931e"/><stop offset="0.63" stop-color="#c47518"/><stop offset="0.87" stop-color="#9c5d13"/></linearGradient><linearGradient id="linear-gradient-5" x1="166.37" y1="161.06" x2="225.64" y2="60.96" gradientTransform="translate(484.3 519.03) rotate(180)" gradientUnits="userSpaceOnUse"><stop offset="0.3" stop-color="#ffd91f"/><stop offset="0.63" stop-color="#cca61d"/><stop offset="0.87" stop-color="#a67f1b"/></linearGradient><linearGradient id="linear-gradient-6" x1="339.1" y1="167.42" x2="398.37" y2="67.32" gradientTransform="translate(210.24 766.9) rotate(-120)" gradientUnits="userSpaceOnUse"><stop offset="0.3" stop-color="#40d956"/><stop offset="0.57" stop-color="#23a548"/><stop offset="0.87" stop-color="#006837"/></linearGradient></defs><g id="Mobius_Hexagon_Strip" data-name="Mobius Hexagon Strip"><g id="Shadowed_-_Paler" data-name="Shadowed - Paler"><polygon class="cls-1" points="224.48 0 103.73 69.71 328.21 199.31 328.21 59.89 224.48 0"/><polygon class="cls-2" points="328.21 59.89 278.64 170.69 328.21 199.31 328.21 59.89"/><polygon class="cls-3" points="0 129.6 0 269.02 224.48 139.42 103.73 69.71 0 129.6"/><polygon class="cls-4" points="103.73 69.71 174.9 168.04 224.48 139.42 103.73 69.71"/><polygon class="cls-5" points="0 269.02 120.74 199.31 120.74 458.52 0 388.81 0 269.02"/><polygon class="cls-6" points="0 269.02 120.74 256.56 120.74 199.31 0 269.02"/><polygon class="cls-7" points="448.96 249.38 328.21 319.1 328.21 59.89 448.96 129.6 448.96 249.38"/><polygon class="cls-8" points="448.96 249.38 328.22 261.85 328.21 319.1 448.96 249.38"/><polygon class="cls-9" points="448.96 388.81 448.96 249.38 224.48 378.99 345.22 448.7 448.96 388.81"/><polygon class="cls-10" points="345.22 448.7 274.06 350.37 224.48 378.99 345.22 448.7"/><polygon class="cls-11" points="224.48 518.41 345.22 448.7 120.74 319.1 120.74 458.52 224.48 518.41"/><polygon class="cls-12" points="120.74 458.52 170.32 347.72 120.74 319.1 120.74 458.52"/></g></g></svg>