<?xml version="1.0" encoding="utf-8"?>
<!-- Generator: Adobe Illustrator 25.0.1, SVG Export Plug-In . SVG Version: 6.00 Build 0)  -->
<svg version="1.1" id="Layer_1" xmlns="http://www.w3.org/2000/svg" xmlns:xlink="http://www.w3.org/1999/xlink" x="0px" y="0px"
	 viewBox="0 0 318 183" style="enable-background:new 0 0 318 183;" xml:space="preserve">
<style type="text/css">
	.st0{fill:#71D5FF;}
	.st1{fill:#00A2E8;}
	.st2{fill:#888888;}
	.st3{fill:#0F7B9B;}
	.st4{fill:none;stroke:#0F7B9B;stroke-width:4.4483;stroke-miterlimit:10;}
</style>
<g>
	<g>
		<path class="st0" d="M171.7,76h-25.5c-1.5,0-2.8,1.2-2.8,2.8v25.5c0,1.5,1.2,2.8,2.8,2.8h25.5c1.5,0,2.8-1.2,2.8-2.8V78.8
			C174.5,77.2,173.3,76,171.7,76z M168.6,99.6c0,0.9-0.8,1.7-1.7,1.7h-15.8c-0.9,0-1.7-0.8-1.7-1.7V83.8c0-0.9,0.8-1.7,1.7-1.7h15.8
			c0.9,0,1.7,0.8,1.7,1.7V99.6z"/>
	</g>
</g>
<g>
	<g>
		<path class="st0" d="M136.7,76h-25.5c-1.5,0-2.8,1.2-2.8,2.8v25.5c0,1.5,1.2,2.8,2.8,2.8h25.5c1.5,0,2.8-1.2,2.8-2.8V78.8
			C139.5,77.2,138.3,76,136.7,76z M133.6,99.6c0,0.9-0.8,1.7-1.7,1.7h-15.8c-0.9,0-1.7-0.8-1.7-1.7V83.8c0-0.9,0.8-1.7,1.7-1.7h15.8
			c0.9,0,1.7,0.8,1.7,1.7V99.6z"/>
	</g>
</g>
<g>
	<g>
		<path class="st0" d="M136.7,41h-25.5c-1.5,0-2.8,1.2-2.8,2.8v25.5c0,1.5,1.2,2.8,2.8,2.8h25.5c1.5,0,2.8-1.2,2.8-2.8V43.8
			C139.5,42.3,138.3,41,136.7,41z M133.6,64.6c0,0.9-0.8,1.7-1.7,1.7h-15.8c-0.9,0-1.7-0.8-1.7-1.7V48.8c0-0.9,0.8-1.7,1.7-1.7h15.8
			c0.9,0,1.7,0.8,1.7,1.7V64.6z"/>
	</g>
</g>
<g>
	<g>
		<path class="st0" d="M206.7,76h-25.5c-1.5,0-2.8,1.2-2.8,2.8v25.5c0,1.5,1.2,2.8,2.8,2.8h25.5c1.5,0,2.8-1.2,2.8-2.8V78.8
			C209.5,77.2,208.2,76,206.7,76z M203.6,99.6c0,0.9-0.8,1.7-1.7,1.7h-15.8c-0.9,0-1.7-0.8-1.7-1.7V83.8c0-0.9,0.8-1.7,1.7-1.7h15.8
			c0.9,0,1.7,0.8,1.7,1.7V99.6z"/>
	</g>
</g>
<g>
	<g>
		<path class="st0" d="M206.7,41h-25.5c-1.5,0-2.8,1.2-2.8,2.8v25.5c0,1.5,1.2,2.8,2.8,2.8h25.5c1.5,0,2.8-1.2,2.8-2.8V43.8
			C209.5,42.3,208.2,41,206.7,41z M203.6,64.6c0,0.9-0.8,1.7-1.7,1.7h-15.8c-0.9,0-1.7-0.8-1.7-1.7V48.8c0-0.9,0.8-1.7,1.7-1.7h15.8
			c0.9,0,1.7,0.8,1.7,1.7V64.6z"/>
	</g>
</g>
<g>
	<g>
		<path class="st0" d="M206.7,111h-25.5c-1.5,0-2.8,1.2-2.8,2.8v25.5c0,1.5,1.2,2.8,2.8,2.8h25.5c1.5,0,2.8-1.2,2.8-2.8v-25.5
			C209.5,112.2,208.2,111,206.7,111z M203.6,134.6c0,0.9-0.8,1.7-1.7,1.7h-15.8c-0.9,0-1.7-0.8-1.7-1.7v-15.8c0-0.9,0.8-1.7,1.7-1.7
			h15.8c0.9,0,1.7,0.8,1.7,1.7V134.6z"/>
	</g>
</g>
<g>
	<g>
		<path class="st0" d="M136.7,111h-25.5c-1.5,0-2.8,1.2-2.8,2.8v25.5c0,1.5,1.2,2.8,2.8,2.8h25.5c1.5,0,2.8-1.2,2.8-2.8v-25.5
			C139.5,112.2,138.3,111,136.7,111z M133.6,134.6c0,0.9-0.8,1.7-1.7,1.7h-15.8c-0.9,0-1.7-0.8-1.7-1.7v-15.8c0-0.9,0.8-1.7,1.7-1.7
			h15.8c0.9,0,1.7,0.8,1.7,1.7V134.6z"/>
	</g>
</g>
<g>
	<g>
		<path class="st0" d="M171.7,111h-25.5c-1.5,0-2.8,1.2-2.8,2.8v25.5c0,1.5,1.2,2.8,2.8,2.8h25.5c1.5,0,2.8-1.2,2.8-2.8v-25.5
			C174.5,112.2,173.3,111,171.7,111z M168.6,134.6c0,0.9-0.8,1.7-1.7,1.7h-15.8c-0.9,0-1.7-0.8-1.7-1.7v-15.8c0-0.9,0.8-1.7,1.7-1.7
			h15.8c0.9,0,1.7,0.8,1.7,1.7V134.6z"/>
	</g>
</g>
<g>
	<g>
		<path class="st0" d="M171.7,41h-25.5c-1.5,0-2.8,1.2-2.8,2.8v25.5c0,1.5,1.2,2.8,2.8,2.8h25.5c1.5,0,2.8-1.2,2.8-2.8V43.8
			C174.5,42.3,173.3,41,171.7,41z M168.6,64.6c0,0.9-0.8,1.7-1.7,1.7h-15.8c-0.9,0-1.7-0.8-1.7-1.7V48.8c0-0.9,0.8-1.7,1.7-1.7h15.8
			c0.9,0,1.7,0.8,1.7,1.7V64.6z"/>
	</g>
</g>
<g>
	<path class="st1" d="M136.7,72h-25.4c-1.5,0-2.8-1.2-2.8-2.8V43.8c0-1.5,1.2-2.8,2.8-2.8h25.4c1.5,0,2.8,1.2,2.8,2.8v25.4
		C139.5,70.8,138.3,72,136.7,72z"/>
</g>
<path class="st2" d="M206.7,41h-25.4c-1.5,0-2.8,1.2-2.8,2.8v25.5c0,1.5,1.2,2.8,2.8,2.8h25.4c1.5,0,2.8-1.2,2.8-2.8V43.8
	C209.5,42.3,208.2,41,206.7,41z M202.9,58.6h-17.8v-4.2h17.8V58.6z"/>
<path class="st2" d="M206.7,76h-25.4c-1.5,0-2.8,1.2-2.8,2.8v25.5c0,1.5,1.2,2.8,2.8,2.8h25.4c1.5,0,2.8-1.2,2.8-2.8V78.7
	C209.5,77.2,208.2,76,206.7,76z M202.9,93.5h-17.8v-4.2h17.8V93.5z"/>
<path class="st2" d="M206.7,111h-25.4c-1.5,0-2.8,1.2-2.8,2.8v25.5c0,1.5,1.2,2.8,2.8,2.8h25.4c1.5,0,2.8-1.2,2.8-2.8v-25.5
	C209.5,112.2,208.2,111,206.7,111z M202.9,128.6h-17.8v-4.2h17.8V128.6z"/>
<path class="st2" d="M187.2-62.4h-25.4c-1.5,0-2.8,1.2-2.8,2.8v25.5c0,1.5,1.2,2.8,2.8,2.8h25.4c1.5,0,2.8-1.2,2.8-2.8v-25.5
	C190-61.2,188.7-62.4,187.2-62.4z M183.4-44.8h-17.8V-49h17.8V-44.8z"/>
<g>
	<path class="st3" d="M468.4,51.8V122c0,3,2.4,5.4,5.4,5.4l0,0v4.9l0,0c-6,0-10.8-4.8-10.8-10.8V52.3c0-6,4.8-10.8,10.8-10.8l0,0
		v4.9l0,0C470.8,46.4,468.4,48.8,468.4,51.8z"/>
</g>
<g>
	
		<rect x="426.7" y="122.9" transform="matrix(6.123234e-17 -1 1 6.123234e-17 300.8294 557.4652)" class="st2" width="4.9" height="10.8"/>
	<rect x="426.4" y="125.9" class="st2" width="5.4" height="35.2"/>
	
		<rect x="426.7" y="153.2" transform="matrix(6.123234e-17 -1 1 6.123234e-17 270.5039 587.7906)" class="st2" width="4.9" height="10.8"/>
</g>
<g>
	
		<rect x="407.9" y="56.9" transform="matrix(-1 -1.224647e-16 1.224647e-16 -1 820.7333 124.6051)" class="st2" width="4.9" height="10.8"/>
	
		<rect x="422.8" y="44.7" transform="matrix(6.123234e-17 -1 1 6.123234e-17 363.2269 487.832)" class="st2" width="5.4" height="35.2"/>
	
		<rect x="438.2" y="56.9" transform="matrix(-1 -1.224647e-16 1.224647e-16 -1 881.3843 124.6051)" class="st2" width="4.9" height="10.8"/>
</g>
<g>
	<path class="st1" d="M378,167.5h-25.4c-1.5,0-2.8,1.2-2.8,2.8v25.5c0,1.5,1.2,2.8,2.8,2.8H378c1.5,0,2.8-1.2,2.8-2.8v-25.5
		C380.8,168.7,379.6,167.5,378,167.5z M370.5,190.6h-10v-3.4h3V179H361v-3.4h6.5v11.6h3V190.6z"/>
</g>
<g>
	<path class="st1" d="M375.7,115.3h-25.4c-1.5,0-2.8,1.2-2.8,2.8v25.4c0,1.5,1.2,2.8,2.8,2.8h25.4c1.5,0,2.8-1.2,2.8-2.8v-25.4
		C378.4,116.5,377.2,115.3,375.7,115.3z M368.5,138.4h-10.7V135c1.8-1.5,3.1-2.7,3.9-3.4c0.8-0.7,1.4-1.3,1.8-1.9
		c0.4-0.5,0.6-1,0.6-1.5c0-0.6-0.2-1-0.6-1.3c-0.4-0.3-0.9-0.4-1.5-0.4c-1.2,0-2.5,0.3-3.7,0.9v-3.5c0.7-0.3,1.5-0.5,2.2-0.6
		c0.7-0.1,1.5-0.2,2.4-0.2c1.5,0,2.8,0.4,3.7,1.2c1,0.8,1.4,2,1.4,3.5c0,0.9-0.2,1.6-0.5,2.3c-0.3,0.7-0.9,1.4-1.6,2.1
		c-0.7,0.7-1.8,1.6-3.1,2.7h5.7V138.4z"/>
</g>
<g>
	<path class="st1" d="M326.4,203.4H301c-1.5,0-2.8,1.2-2.8,2.8v25.4c0,1.5,1.2,2.8,2.8,2.8h25.4c1.5,0,2.8-1.2,2.8-2.8v-25.4
		C329.2,204.6,327.9,203.4,326.4,203.4z M317.4,225.6c-1,0.8-2.5,1.2-4.3,1.2c-1.8,0-3.3-0.3-4.6-0.8v-3.5c0.6,0.3,1.2,0.5,1.8,0.6
		c0.6,0.2,1.3,0.2,1.9,0.2c0.9,0,1.5-0.2,2-0.4c0.5-0.3,0.7-0.7,0.7-1.3c0-0.5-0.2-0.8-0.5-1.1c-0.4-0.2-0.9-0.4-1.6-0.4h-2.5V217
		h2.5c1.3,0,1.9-0.4,1.9-1.2c0-0.4-0.2-0.7-0.6-0.9c-0.4-0.2-1-0.3-1.7-0.3c-1.4,0-2.7,0.3-3.7,0.8v-3.5c1.1-0.5,2.6-0.7,4.4-0.7
		c1.7,0,3.1,0.3,4.1,1c1,0.7,1.5,1.7,1.5,2.8c0,1-0.2,1.8-0.7,2.3c-0.4,0.6-1.1,1-2,1.3c0.9,0.2,1.6,0.6,2.1,1.3
		c0.5,0.6,0.8,1.4,0.8,2.5C319,223.7,318.5,224.8,317.4,225.6z"/>
</g>
<g>
	<path class="st2" d="M354.6,43.3v25.2h24.8V43.4L354.6,43.3z M361.6,64.7h-3.3V47.1h3.3V64.7z M368.6,64.7h-3.3V47.1h3.3V64.7z
		 M375.7,64.7h-3.3V47.1h3.3V64.7z"/>
	<rect x="351" y="36.8" class="st2" width="31.9" height="4.2"/>
</g>
<g>
	<rect x="325.6" y="-11.4" class="st2" width="4.2" height="18.3"/>
	<g>
		<rect x="325.6" y="2.7" class="st2" width="31.9" height="4.2"/>
		<rect x="329.2" y="-18.2" class="st2" width="24.7" height="4.2"/>
		<rect x="353.3" y="-11.4" class="st2" width="4.2" height="18.3"/>
		<rect x="329.2" y="-24.9" class="st2" width="24.7" height="4.2"/>
		<g>
			<rect x="325.6" y="-11.4" class="st2" width="11.8" height="4.2"/>
			<rect x="345.6" y="-11.4" class="st2" width="11.9" height="4.2"/>
			<rect x="335.6" y="-7.3" class="st2" width="11.9" height="4.2"/>
			
				<rect x="342.8" y="-9.4" transform="matrix(0.2869 -0.958 0.958 0.2869 254.1271 326.7793)" class="st2" width="7.4" height="4.2"/>
			<rect x="334.4" y="-11" transform="matrix(0.958 -0.2869 0.2869 0.958 16.2359 96.2257)" class="st2" width="4.2" height="7.4"/>
		</g>
	</g>
</g>
<g>
	<g>
		<line class="st4" x1="121.4" y1="30.3" x2="199.8" y2="30.3"/>
		<g>
			<polygon class="st3" points="198.2,35.8 207.8,30.3 198.2,24.8 			"/>
		</g>
	</g>
</g>
<g>
	<g>
		<line class="st4" x1="97.5" y1="54.7" x2="97.5" y2="132.4"/>
		<g>
			<polygon class="st3" points="92,130.7 97.5,140.3 103.1,130.7 			"/>
		</g>
	</g>
</g>
<path class="st3" d="M92,41.4v11.2h11.2V41.4H92z M98.3,47.9v2.6h-1.6v-2.6l-2.3-4.1h1.6l1.5,2.7l1.5-2.7h1.6L98.3,47.9z"/>
<path class="st3" d="M108.4,25.2v11.2h11.2V25.2H108.4z M115.5,34.2L114,32l-1.5,2.3h-1.8l2.4-3.5l-2.3-3.3h1.8l1.3,2l1.3-2h1.8
	l-2.3,3.3l2.4,3.5H115.5z"/>
</svg>
