<svg xmlns="http://www.w3.org/2000/svg" viewBox="0 0 46.4 46.4"><defs><style>.cls-1{fill:#0b5b73;}.cls-2{fill:#44aac8;}.cls-3{fill:#0f7b9b;}.cls-4{fill:#fff;}</style></defs><g id="Layer_2" data-name="Layer 2"><g id="Layer_3" data-name="Layer 3"><polygon class="cls-1" points="0 0 46.4 0 46.4 46.4 0 0"/><polygon class="cls-2" points="46.4 46.4 0 46.4 0 0 46.4 46.4"/><rect class="cls-3" x="1.54" y="1.54" width="43.32" height="43.32"/><g id="dirIcon"><path id="dirBack" class="cls-4" d="M11.3,12.74v3.15h8.58a2.1,2.1,0,0,0,2.1-2.1V12.68a2.11,2.11,0,0,0-2.11-2.12h-6.4A2.18,2.18,0,0,0,11.3,12.74Z"/><path id="dirFront" class="cls-4" d="M11.3,17.73V34.4H35.12V15.55H23.93a3.7,3.7,0,0,1-3,2.18Z"/></g></g></g></svg>