<svg id="Layer_1" data-name="Layer 1" xmlns="http://www.w3.org/2000/svg" width="318" height="183" viewBox="0 0 318 183"><defs><style>.cls-1{fill:none;stroke:#0f7b9b;stroke-miterlimit:10;stroke-width:4.45px;}.cls-2{fill:#0f7b9b;}.cls-3{fill:#c7c7c7;}.cls-4{fill:#00a2e8;}</style></defs><line class="cls-1" x1="121.4" y1="30.3" x2="199.8" y2="30.3"/><polygon class="cls-2" points="198.2 35.8 207.8 30.3 198.2 24.8 198.2 35.8"/><line class="cls-1" x1="97.5" y1="54.7" x2="97.5" y2="132.4"/><polygon class="cls-2" points="92 130.7 97.5 140.3 103.1 130.7 92 130.7"/><path class="cls-2" d="M92,41.4V52.6h11.2V41.4Zm6.3,6.5v2.6H96.7V47.9l-2.3-4.1H96l1.5,2.7L99,43.8h1.6Z"/><path class="cls-2" d="M108.4,25.2V36.4h11.2V25.2Zm7.1,9L114,32l-1.5,2.3h-1.8l2.4-3.5-2.3-3.3h1.8l1.3,2,1.3-2H117l-2.3,3.3,2.4,3.5h-1.6Z"/><path class="cls-3" d="M171.7,76H146.3a2.8,2.8,0,0,0-2.8,2.8v25.41a2.79,2.79,0,0,0,2.8,2.79h25.4a2.79,2.79,0,0,0,2.8-2.79V78.7A2.78,2.78,0,0,0,171.7,76Zm-3.8,17.45H150.1V89.26h17.8Z"/><path class="cls-3" d="M171.7,41H146.3a2.8,2.8,0,0,0-2.8,2.8V69.21A2.79,2.79,0,0,0,146.3,72h25.4a2.79,2.79,0,0,0,2.8-2.79V43.7A2.78,2.78,0,0,0,171.7,41Zm-3.8,17.45H150.1V54.26h17.8Z"/><path class="cls-3" d="M171.7,111H146.3a2.8,2.8,0,0,0-2.8,2.8v25.41a2.79,2.79,0,0,0,2.8,2.79h25.4a2.79,2.79,0,0,0,2.8-2.79V113.7A2.78,2.78,0,0,0,171.7,111Zm-3.8,17.45H150.1v-4.19h17.8Z"/><path class="cls-3" d="M206.7,41.05H181.3a2.79,2.79,0,0,0-2.8,2.79V69.26a2.79,2.79,0,0,0,2.8,2.79h25.4a2.79,2.79,0,0,0,2.8-2.79V43.74A2.77,2.77,0,0,0,206.7,41.05Zm-3.8,17.44H185.1V54.3h17.8Z"/><path class="cls-3" d="M206.7,76H181.3a2.79,2.79,0,0,0-2.8,2.79v25.42a2.79,2.79,0,0,0,2.8,2.79h25.4a2.79,2.79,0,0,0,2.8-2.79V78.69A2.77,2.77,0,0,0,206.7,76Zm-3.8,17.44H185.1V89.25h17.8Z"/><path class="cls-3" d="M206.7,111H181.3a2.79,2.79,0,0,0-2.8,2.79v25.42a2.79,2.79,0,0,0,2.8,2.79h25.4a2.79,2.79,0,0,0,2.8-2.79V113.69A2.77,2.77,0,0,0,206.7,111Zm-3.8,17.44H185.1v-4.19h17.8Z"/><path class="cls-4" d="M136.7,72H111.3a2.8,2.8,0,0,1-2.8-2.8V43.8a2.8,2.8,0,0,1,2.8-2.8h25.4a2.8,2.8,0,0,1,2.8,2.8V69.2A2.73,2.73,0,0,1,136.7,72Z"/><path class="cls-4" d="M136.7,76H111.3a2.79,2.79,0,0,0-2.8,2.79v25.42a2.79,2.79,0,0,0,2.8,2.79h25.4a2.79,2.79,0,0,0,2.8-2.79V78.79A2.73,2.73,0,0,0,136.7,76Zm-7.5,23h-10V95.64h3V87.46h-2.5V84.07h6.5V95.64h3Z"/><path class="cls-4" d="M136.7,111H111.3a2.8,2.8,0,0,0-2.8,2.8v25.4a2.8,2.8,0,0,0,2.8,2.8h25.4a2.8,2.8,0,0,0,2.8-2.8V113.8A2.86,2.86,0,0,0,136.7,111Zm-7.2,23.1H118.8v-3.4c1.8-1.5,3.1-2.7,3.9-3.4a10.24,10.24,0,0,0,1.8-1.9,2.4,2.4,0,0,0,.6-1.5,1.49,1.49,0,0,0-.6-1.3,2.41,2.41,0,0,0-1.5-.4,8.39,8.39,0,0,0-3.7.9v-3.5a9,9,0,0,1,2.2-.6,16.59,16.59,0,0,1,2.4-.2,5.49,5.49,0,0,1,3.7,1.2,4.2,4.2,0,0,1,1.4,3.5,5.56,5.56,0,0,1-.5,2.3,7.33,7.33,0,0,1-1.6,2.1c-.7.7-1.8,1.6-3.1,2.7h5.7v3.5Z"/></svg>