<svg id="Layer_1" data-name="Layer 1" xmlns="http://www.w3.org/2000/svg" width="318" height="183" viewBox="0 0 318 183"><defs><style>.cls-1{fill:#00a2e8;}.cls-2{fill:none;stroke:#0f7b9b;stroke-miterlimit:10;stroke-width:4.45px;}.cls-3{fill:#0f7b9b;}.cls-4{fill:#c7c7c7;}</style></defs><path class="cls-1" d="M136.71,76H111.29a2.79,2.79,0,0,0-2.79,2.79v25.42a2.79,2.79,0,0,0,2.79,2.79h25.42a2.79,2.79,0,0,0,2.79-2.79V78.79A2.73,2.73,0,0,0,136.71,76Zm-3.09,23.52a1.75,1.75,0,0,1-1.7,1.7H116.18a1.75,1.75,0,0,1-1.7-1.7V83.77a1.75,1.75,0,0,1,1.7-1.69h15.74a1.75,1.75,0,0,1,1.7,1.69Z"/><path class="cls-1" d="M136.71,111H111.29a2.79,2.79,0,0,0-2.79,2.79v25.42a2.79,2.79,0,0,0,2.79,2.79h25.42a2.79,2.79,0,0,0,2.79-2.79V113.79A2.73,2.73,0,0,0,136.71,111Zm-3.09,23.52a1.75,1.75,0,0,1-1.7,1.7H116.18a1.75,1.75,0,0,1-1.7-1.7V118.77a1.75,1.75,0,0,1,1.7-1.69h15.74a1.75,1.75,0,0,1,1.7,1.69Z"/><line class="cls-2" x1="121.4" y1="30.3" x2="199.8" y2="30.3"/><polygon class="cls-3" points="198.2 35.8 207.8 30.3 198.2 24.8 198.2 35.8"/><line class="cls-2" x1="97.5" y1="54.7" x2="97.5" y2="132.4"/><polygon class="cls-3" points="92 130.7 97.5 140.3 103.1 130.7 92 130.7"/><path class="cls-3" d="M92,41.4V52.6h11.2V41.4Zm6.3,6.5v2.6H96.7V47.9l-2.3-4.1H96l1.5,2.7L99,43.8h1.6Z"/><path class="cls-3" d="M108.4,25.2V36.4h11.2V25.2Zm7.1,9L114,32l-1.5,2.3h-1.8l2.4-3.5-2.3-3.3h1.8l1.3,2,1.3-2H117l-2.3,3.3,2.4,3.5h-1.6Z"/><path class="cls-4" d="M206.7,41H181.3a2.79,2.79,0,0,0-2.8,2.79V69.23a2.8,2.8,0,0,0,2.8,2.8h25.4a2.8,2.8,0,0,0,2.8-2.8V43.72A2.77,2.77,0,0,0,206.7,41Zm-3.8,17.44H185.1V54.28h17.8Z"/><path class="cls-4" d="M206.7,76H181.3a2.8,2.8,0,0,0-2.8,2.8v25.41a2.79,2.79,0,0,0,2.8,2.79h25.4a2.79,2.79,0,0,0,2.8-2.79V78.67A2.78,2.78,0,0,0,206.7,76Zm-3.8,17.45H185.1V89.23h17.8Z"/><path class="cls-4" d="M206.7,111H181.3a2.8,2.8,0,0,0-2.8,2.8v25.41a2.79,2.79,0,0,0,2.8,2.79h25.4a2.79,2.79,0,0,0,2.8-2.79V113.67A2.78,2.78,0,0,0,206.7,111Zm-3.8,17.45H185.1v-4.19h17.8Z"/><path class="cls-1" d="M171.75,41.05h-25.4a2.79,2.79,0,0,0-2.8,2.79V69.26a2.79,2.79,0,0,0,2.8,2.79h25.4a2.79,2.79,0,0,0,2.8-2.79V43.84A2.73,2.73,0,0,0,171.75,41.05Zm-7.5,23h-10V60.69h3V52.51h-2.5V49.12h6.5V60.69h3Z"/><path class="cls-1" d="M171.75,76h-25.4a2.8,2.8,0,0,0-2.8,2.8v25.4a2.8,2.8,0,0,0,2.8,2.8h25.4a2.8,2.8,0,0,0,2.8-2.8V78.8A2.86,2.86,0,0,0,171.75,76Zm-7.2,23.1h-10.7V95.7c1.8-1.5,3.1-2.7,3.9-3.4a10.24,10.24,0,0,0,1.8-1.9,2.4,2.4,0,0,0,.6-1.5,1.49,1.49,0,0,0-.6-1.3,2.41,2.41,0,0,0-1.5-.4,8.39,8.39,0,0,0-3.7.9V84.6a9,9,0,0,1,2.2-.6,16.59,16.59,0,0,1,2.4-.2,5.49,5.49,0,0,1,3.7,1.2,4.2,4.2,0,0,1,1.4,3.5,5.56,5.56,0,0,1-.5,2.3,7.33,7.33,0,0,1-1.6,2.1c-.7.7-1.8,1.6-3.1,2.7h5.7v3.5Z"/><path class="cls-1" d="M171.75,111h-25.4a2.8,2.8,0,0,0-2.8,2.8v25.4a2.8,2.8,0,0,0,2.8,2.8h25.4a2.8,2.8,0,0,0,2.8-2.8V113.8A2.8,2.8,0,0,0,171.75,111Zm-9,22.2a6.87,6.87,0,0,1-4.3,1.2,12.62,12.62,0,0,1-4.6-.8v-3.5a6.36,6.36,0,0,0,1.8.6,6.15,6.15,0,0,0,1.9.2,5,5,0,0,0,2-.4,1.36,1.36,0,0,0,.7-1.3,1.43,1.43,0,0,0-.5-1.1,3.41,3.41,0,0,0-1.6-.4h-2.5v-3.1h2.5c1.3,0,1.9-.4,1.9-1.2a1,1,0,0,0-.6-.9,4,4,0,0,0-1.7-.3,8.41,8.41,0,0,0-3.7.8v-3.5a11,11,0,0,1,4.4-.7,7.12,7.12,0,0,1,4.1,1,3.34,3.34,0,0,1,1.5,2.8,3.17,3.17,0,0,1-.7,2.3,3.7,3.7,0,0,1-2,1.3,3.32,3.32,0,0,1,2.1,1.3,3.74,3.74,0,0,1,.8,2.5A3.45,3.45,0,0,1,162.75,133.2Z"/><path class="cls-1" d="M136.7,72H111.3a2.8,2.8,0,0,1-2.8-2.8V43.8a2.8,2.8,0,0,1,2.8-2.8h25.4a2.8,2.8,0,0,1,2.8,2.8V69.2A2.73,2.73,0,0,1,136.7,72Z"/></svg>