<svg id="Layer_1" data-name="Layer 1" xmlns="http://www.w3.org/2000/svg" width="318" height="183" viewBox="0 0 318 183"><defs><style>.cls-1{fill:none;stroke:#0f7b9b;stroke-miterlimit:10;stroke-width:4.45px;}.cls-2{fill:#0f7b9b;}.cls-3{fill:#c7c7c7;}</style></defs><line class="cls-1" x1="121.4" y1="30.3" x2="199.8" y2="30.3"/><polygon class="cls-2" points="198.2 35.8 207.8 30.3 198.2 24.8 198.2 35.8"/><line class="cls-1" x1="97.5" y1="54.7" x2="97.5" y2="132.4"/><polygon class="cls-2" points="92 130.7 97.5 140.3 103.1 130.7 92 130.7"/><path class="cls-2" d="M92,41.4V52.6h11.2V41.4Zm6.3,6.5v2.6H96.7V47.9l-2.3-4.1H96l1.5,2.7L99,43.8h1.6Z"/><path class="cls-2" d="M108.4,25.2V36.4h11.2V25.2Zm7.1,9L114,32l-1.5,2.3h-1.8l2.4-3.5-2.3-3.3h1.8l1.3,2,1.3-2H117l-2.3,3.3,2.4,3.5h-1.6Z"/><path class="cls-3" d="M206.7,41.05H181.3a2.79,2.79,0,0,0-2.8,2.79V69.26a2.79,2.79,0,0,0,2.8,2.79h25.4a2.79,2.79,0,0,0,2.8-2.79V43.74A2.77,2.77,0,0,0,206.7,41.05Zm-3.8,17.44H185.1V54.31h17.8Z"/><path class="cls-3" d="M206.7,76H181.3a2.79,2.79,0,0,0-2.8,2.79v25.42a2.79,2.79,0,0,0,2.8,2.79h25.4a2.79,2.79,0,0,0,2.8-2.79V78.69A2.77,2.77,0,0,0,206.7,76Zm-3.8,17.44H185.1V89.26h17.8Z"/><path class="cls-3" d="M171.7,76H146.3a2.79,2.79,0,0,0-2.8,2.79v25.42a2.79,2.79,0,0,0,2.8,2.79h25.4a2.79,2.79,0,0,0,2.8-2.79V78.69A2.77,2.77,0,0,0,171.7,76Zm-3.8,17.44H150.1V89.26h17.8Z"/><path class="cls-3" d="M136.7,76H111.3a2.79,2.79,0,0,0-2.8,2.79v25.42a2.79,2.79,0,0,0,2.8,2.79h25.4a2.79,2.79,0,0,0,2.8-2.79V78.69A2.77,2.77,0,0,0,136.7,76Zm-3.8,17.44H115.1V89.26h17.8Z"/><path class="cls-3" d="M136.7,41H111.3a2.79,2.79,0,0,0-2.8,2.79V69.21A2.79,2.79,0,0,0,111.3,72h25.4a2.79,2.79,0,0,0,2.8-2.79V43.69A2.77,2.77,0,0,0,136.7,41Zm-3.8,17.44H115.1V54.26h17.8Z"/><path class="cls-3" d="M171.7,41H146.3a2.79,2.79,0,0,0-2.8,2.79V69.21A2.79,2.79,0,0,0,146.3,72h25.4a2.79,2.79,0,0,0,2.8-2.79V43.69A2.77,2.77,0,0,0,171.7,41Zm-3.8,17.44H150.1V54.26h17.8Z"/><path class="cls-3" d="M136.7,111H111.3a2.79,2.79,0,0,0-2.8,2.79v25.42a2.79,2.79,0,0,0,2.8,2.79h25.4a2.79,2.79,0,0,0,2.8-2.79V113.69A2.77,2.77,0,0,0,136.7,111Zm-3.8,17.44H115.1v-4.18h17.8Z"/><path class="cls-3" d="M171.7,111H146.3a2.79,2.79,0,0,0-2.8,2.79v25.42a2.79,2.79,0,0,0,2.8,2.79h25.4a2.79,2.79,0,0,0,2.8-2.79V113.69A2.77,2.77,0,0,0,171.7,111Zm-3.8,17.44H150.1v-4.18h17.8Z"/><path class="cls-3" d="M206.7,111H181.3a2.79,2.79,0,0,0-2.8,2.79v25.42a2.79,2.79,0,0,0,2.8,2.79h25.4a2.79,2.79,0,0,0,2.8-2.79V113.69A2.77,2.77,0,0,0,206.7,111Zm-3.8,17.44H185.1v-4.18h17.8Z"/></svg>