<svg id="misc" xmlns="http://www.w3.org/2000/svg" width="519.65" height="360.19" viewBox="0 0 519.65 360.19"><defs><style>.cls-1{fill:#fff;stroke:#000;stroke-miterlimit:10;}.cls-2{fill:#888;}</style></defs><g id="graphs"><g id="Hidden"><path class="cls-1" d="M523.88,259.83" transform="translate(0 -79.73)"/><path class="cls-1" d="M523.88,259.83" transform="translate(0 -79.73)"/><path class="cls-2" d="M259.83,129C67.77,129,0,259.83,0,259.83v9.4s37.83,73,137.05,110l61-61a83,83,0,0,1-21.6-54c0-.66,0-1.33,0-2a83.41,83.41,0,0,1,139.44-61.8l54.71-54.71C339.43,135.53,302.73,129,259.83,129Zm160,37.74-78.38,78.38a82.62,82.62,0,0,1,1.76,17.06c0,.67,0,1.34,0,2a83.44,83.44,0,0,1-100.46,79.66l-50.39,50.39a379,379,0,0,0,67.46,5.83c192.05,0,259.82-130.83,259.82-130.83v-9.4S491.44,205.38,419.86,166.74Z" transform="translate(0 -79.73)"/><rect class="cls-2" x="234.94" y="30.02" width="49.76" height="459.62" transform="translate(259.83 -187.35) rotate(45)"/></g></g></svg>