<svg id="Cut" xmlns="http://www.w3.org/2000/svg" viewBox="0 0 414.82 519.64"><defs><style>.cls-1{fill:#231f20;}</style></defs><path class="cls-1" d="M482.31,93.27,469.67,40.18l-154,240.07,55.15,77.13c10-16.46,17.79-29.32,24.85-40.88,14.27-23.37,37.91-66.74,56.1-106.73C486,134.33,485.61,107.16,482.31,93.27Zm24.88,371a89.34,89.34,0,0,0-95.35-82.9l-.89.09c-28.68,3.51-43.56,4.66-54.54-.32-11.17-5.37-56.4-76.56-56.4-76.56h0L130.33,40.18l-12.64,53.1c-3.3,13.88-3.71,41.05,30.59,116.49,18.19,40,41.83,83.37,56.11,106.74,12.62,20.67,28,46.05,39.2,64.62-11,5-25.86,3.83-54.54.32l-.89-.09a89.34,89.34,0,1,0,47.7,160.36c19.73-15,30.46-42.41,40.84-69,5.19-13.27,10.09-25.8,15.35-34.47a11.31,11.31,0,0,1,5.31-4.53,6.8,6.8,0,0,1,2.62-.52,7,7,0,0,1,2.66.53,11.06,11.06,0,0,1,5.3,4.52c5.26,8.67,10.16,21.2,15.35,34.47,10.38,26.56,21.11,54,40.85,69A89.22,89.22,0,0,0,418,559.82q3.12,0,6.26-.22a89.33,89.33,0,0,0,83.14-89Q507.41,467.45,507.19,464.26Zm-305.1,43.2A42.26,42.26,0,1,1,219,450.13,42.27,42.27,0,0,1,202.09,507.46Zm253.15-16.87a42.26,42.26,0,1,1-16.87-57.34A42.26,42.26,0,0,1,455.24,490.59Z" transform="translate(-92.59 -40.18)"/></svg>