<svg id="dropMenu" xmlns="http://www.w3.org/2000/svg" width="519.65" height="519.65" viewBox="0 0 519.65 519.65"><defs><style>.cls-1{fill:#231f20;}</style></defs><g id="Settings2"><path class="cls-1" d="M259.82,146.41a113.42,113.42,0,1,1-80.2,33.22,112.67,112.67,0,0,1,80.2-33.22m0-116C133.12,30.41,30.4,133.12,30.4,259.83S133.12,489.24,259.82,489.24,489.23,386.53,489.23,259.83,386.52,30.41,259.82,30.41Z" transform="translate(-0.39)"/><polyline class="cls-1" points="209.92 0 204.92 41.94 314.73 41.92 309.73 0"/><polyline class="cls-1" points="309.73 519.65 314.73 477.71 204.92 477.73 209.92 519.65"/><polyline class="cls-1" points="407.86 36.46 374.67 62.58 452.33 140.21 478.44 107.03"/><polyline class="cls-1" points="110.99 474.48 144.18 448.36 66.52 370.73 40.41 403.91"/><polyline class="cls-1" points="519.65 205.57 477.71 200.57 477.73 310.38 519.65 305.38"/><polyline class="cls-1" points="0 305.38 41.94 310.38 41.92 200.57 0 205.57"/><polyline class="cls-1" points="478.84 408.26 452.71 375.07 375.08 452.73 408.26 478.84"/><polyline class="cls-1" points="40.81 111.39 66.94 144.58 144.57 66.92 111.39 40.81"/></g></svg>