<svg id="Window" xmlns="http://www.w3.org/2000/svg" shape-rendering="crispEdges" viewBox="0 0 600 600"><defs><style>.cls-1{fill:#fff;}</style></defs><polygon class="cls-1" points="600 104.43 166.74 104.45 166.71 0 600 0.01 600 104.43"/><polygon class="cls-1" points="433.29 271.14 0.03 271.15 0 166.71 433.29 166.72 433.29 271.14"/><polygon class="cls-1" points="433.29 599.99 0.03 600 0 495.55 433.29 495.57 433.29 599.99"/><polygon class="cls-1" points="495.57 433.29 495.55 0.03 600 0 599.99 433.29 495.57 433.29"/><polygon class="cls-1" points="0.01 600 0 166.74 104.45 166.71 104.43 600 0.01 600"/><polygon class="cls-1" points="328.86 600 328.85 166.74 433.29 166.71 433.28 600 328.86 600"/></svg>